<svg width="223" height="48" viewBox="0 0 223 48" fill="none" xmlns="http://www.w3.org/2000/svg">
<g clip-path="url(#clip0_1626_412)">
<path fill-rule="evenodd" clip-rule="evenodd" d="M133.66 11.4644L123.549 34.5081L120.855 13.7666H111.844L104.631 34.2017L101.133 17.3509H92.1215L99.4372 47.5773H108.445L114.414 30.7598L116.795 47.5804H125.811L143.396 11.4655L133.66 11.4644Z" fill="#E32124"/>
<path fill-rule="evenodd" clip-rule="evenodd" d="M157.79 -0.000328064H148.559L143.168 11.5986H151.969L157.79 -0.000328064Z" fill="#E32124"/>
<path fill-rule="evenodd" clip-rule="evenodd" d="M192.327 30.1672V26.1318C192.327 20.7796 186.948 19.3651 183.595 19.3651C183.595 19.3651 184.11 19.3742 183.595 19.3742C183.3 19.3742 164.439 19.3487 164.439 19.3487V47.9386H172.814V24.7072L181.611 24.7049C184.5 24.7049 184.752 25.9634 184.752 26.8868C184.752 27.6958 184.752 30.2565 184.752 30.2565C184.752 30.2565 184.795 32.4553 181.963 32.4553C179.986 32.4553 175.583 32.4553 175.583 32.4553L183.774 47.9058H192.598L186.494 37.2631C190.09 36.8096 192.327 34.9732 192.327 30.1671V30.1672Z" fill="#3F4291"/>
<path fill-rule="evenodd" clip-rule="evenodd" d="M20.4818 30.7026C16.718 30.7026 20.4818 30.6965 20.4818 30.6965L9.25204 30.7128V24.1336H26.5036V19.0525H7.1982C1.80155 19.0525 -0.00883484 21.8231 -0.00883484 21.8231V33.5451C-0.00883484 33.5451 2.00259 35.7133 7.58274 35.7133C10.7461 35.7133 18.3413 35.7133 18.3413 35.7133V42.5461H0.140869V47.9386H21.2238C25.3615 47.9386 27.4093 45.5364 27.4093 45.5364V33.3532C27.4093 33.3532 25.6699 30.7026 20.482 30.7026H20.4818Z" fill="#3F4291"/>
<path fill-rule="evenodd" clip-rule="evenodd" d="M49.5425 19.2572V42.5464H39.24L39.2295 19.2572H30.0342V43.9592C30.0342 43.9592 31.8142 47.9388 38.1732 47.9388C44.8681 47.9354 50.5855 47.9324 50.5855 47.9324C56.2852 47.9324 58.4173 44.762 58.4173 44.762L58.4209 44.7206L58.4226 19.2572H49.5427H49.5425Z" fill="#3F4291"/>
<path fill-rule="evenodd" clip-rule="evenodd" d="M81.2425 17.3511V35.9813L70.0485 19.4869L61.0064 19.4958V47.9388H69.8678V30.1179L81.9593 47.9059H90.1075V17.3511H81.2425Z" fill="#3F4291"/>
<path fill-rule="evenodd" clip-rule="evenodd" d="M164.527 47.9386L152.731 19.3734H144.003L130.887 47.9386H140.16L148.045 27.7703L155.565 47.9386H164.527Z" fill="#3F4291"/>
<path fill-rule="evenodd" clip-rule="evenodd" d="M211.475 19.5763V19.5816H194.864V47.9389L207.654 47.9342C214.357 47.9342 222.429 46.7557 222.429 37.8556V29.3969C222.429 18.9465 211.475 19.5764 211.475 19.5764L211.475 19.5763ZM214.434 38.5898C214.434 38.5898 214.241 42.605 209.526 42.605C207.082 42.605 204.756 42.605 202.705 42.6063V25.0662L208.948 25.0628C208.948 25.0628 214.434 24.582 214.434 29.3477C214.434 33.5453 214.434 38.5898 214.434 38.5898Z" fill="#3F4291"/>
</g>
<defs>
<clipPath id="clip0_1626_412">
<rect width="222.438" height="47.9393" fill="white" transform="translate(-0.00881195 -0.000217438)"/>
</clipPath>
</defs>
</svg>
