<svg width="42" height="41" viewBox="0 0 42 41" fill="none" xmlns="http://www.w3.org/2000/svg">
<path fill-rule="evenodd" clip-rule="evenodd" d="M14.2022 17.8465C16.0544 17.8465 17.4714 19.1135 18.071 20.834L19.5794 25.1097L19.5844 25.1231L19.5849 25.1247C19.733 25.5473 19.8132 26.0013 19.8132 26.4725V30.2425C19.8132 30.3935 19.6911 30.5159 19.5405 30.5159H3.20629C1.4355 30.5159 0 29.0671 0 27.2798C0 26.9016 0.0507264 26.6075 0.182443 26.2011C0.673824 24.6852 1.8491 23.6302 3.34311 23.6302H8.85451C8.84911 23.1171 8.83951 22.2035 8.83413 21.3481C8.83009 20.7068 8.8279 20.0628 8.83099 19.5618L8.83896 18.1181C8.83979 17.9677 8.96168 17.8462 9.11175 17.8462L14.2022 17.8465ZM15.8053 29.712C17.5761 29.712 19.0116 28.2631 19.0116 26.4758C19.0116 26.0976 18.9473 25.7345 18.8291 25.3971L17.3074 21.0823C16.8123 19.6865 15.6961 18.6552 14.2021 18.6552H9.66007C9.60628 18.8679 9.64234 22.3225 9.65599 23.6302C9.65834 23.8556 9.65987 24.0062 9.65987 24.0487C9.65987 24.7934 9.90905 25.4793 10.3278 26.0261C10.4526 26.1891 10.5925 26.3397 10.7453 26.4758L13.8013 29.0022C13.9275 29.1042 14.0614 29.1969 14.2021 29.279C14.6737 29.5544 15.2213 29.712 15.8053 29.712Z" fill="white"/>
<path d="M33.9037 25.2938C33.7624 25.2506 33.6121 25.3255 33.5612 25.4645L29.0066 37.9104C28.9677 38.0167 29.0648 38.1226 29.1738 38.0928L31.5962 37.4308L35.3463 28.5841L33.5378 36.7055C33.516 36.8034 33.5995 36.8916 33.6977 36.8717C34.4785 36.7128 37.3046 36.1096 39.144 35.3463C41.2954 34.4535 42.6818 31.9354 41.4182 29.8019C40.4315 28.1361 40.0092 27.4263 39.8715 27.1952C39.8361 27.1359 39.7801 27.092 39.7141 27.0718L36.8089 26.1828L33.9037 25.2938Z" fill="white"/>
<path d="M14.9138 17.0114C16.766 17.0115 18.183 18.2785 18.7826 19.999L19.0215 20.676L28.059 11.6096L36.0697 24.8237C36.121 24.9083 36.2016 24.9711 36.2962 25L36.8089 25.1569L39.1336 25.8683C39.217 25.8938 39.2911 25.8085 39.2544 25.7295L28.3833 2.36889C28.2942 2.16256 28.0087 2.14607 27.8966 2.34079L25.3893 6.69745C25.3406 6.782 25.3406 6.88615 25.3893 6.9707L25.7937 7.67336L14.318 17.0114L14.9138 17.0114Z" fill="white"/>
<path fill-rule="evenodd" clip-rule="evenodd" d="M22.6648 31.4825C24.4846 31.4825 25.9599 32.9623 25.9599 34.7877C25.9599 36.6131 24.4846 38.0928 22.6648 38.0928H5.09627C3.27643 38.0928 1.80116 36.6131 1.80116 34.7877C1.80116 32.9623 3.27643 31.4825 5.09627 31.4825H22.6648ZM22.6963 33.8581L22.6493 33.8568H5.08082C4.57612 33.8569 4.1676 34.2671 4.16758 34.7724L4.1688 34.8195C4.19322 35.303 4.59185 35.688 5.08082 35.688H22.6493C23.154 35.688 23.5625 35.2777 23.5625 34.7724C23.5625 34.2829 23.1791 33.8826 22.6963 33.8581Z" fill="white"/>
</svg>
