<svg width="24" height="24" viewBox="0 0 24 24" fill="none" xmlns="http://www.w3.org/2000/svg">
<rect width="24" height="24" rx="12" fill="url(#paint0_linear_146_1516)"/>
<path d="M0 11.5176C0 6.09045 0 3.36482 1.67554 1.67638C3.37519 1.4377e-07 6.0874 0 11.5239 0H12.4882C17.9126 0 20.6369 1.4377e-07 22.3245 1.67638C24 3.35276 24 6.09045 24 11.5176V12.4824C24 17.9095 24 20.6352 22.3245 22.3236C20.6489 24 17.9126 24 12.4882 24H11.5239C6.09945 24 3.37519 24 1.6876 22.3236C1.43698e-07 20.6352 0 17.9216 0 12.4824V11.5176Z" fill="url(#paint1_linear_146_1516)"/>
<path fill-rule="evenodd" clip-rule="evenodd" d="M5.56235 11.8735C9.10433 10.3493 11.4662 9.34452 12.648 8.85905C16.0221 7.47294 16.7233 7.23216 17.1803 7.22421C17.2808 7.22246 17.5055 7.24706 17.6511 7.36372C17.774 7.46223 17.8078 7.5953 17.824 7.6887C17.8402 7.78209 17.8603 7.99485 17.8443 8.1611C17.6615 10.0586 16.8703 14.6633 16.4678 16.7885C16.2975 17.6877 15.9621 17.9893 15.6374 18.0188C14.9319 18.0829 14.3961 17.5582 13.7127 17.1158C12.6433 16.4235 12.0392 15.9925 11.0012 15.3169C9.80164 14.5362 10.5793 14.1071 11.2629 13.4058C11.4418 13.2222 14.5506 10.4295 14.6108 10.1761C14.6183 10.1444 14.6253 10.0263 14.5542 9.96397C14.4832 9.90161 14.3783 9.92293 14.3027 9.93989C14.1954 9.96394 12.4871 11.0791 9.17774 13.2855C8.69284 13.6143 8.25363 13.7746 7.86012 13.7662C7.4263 13.7569 6.59181 13.5239 5.97145 13.3247C5.21055 13.0805 4.60581 12.9513 4.65847 12.5364C4.6859 12.3203 4.98719 12.0993 5.56235 11.8735Z" fill="white"/>
<defs>
<linearGradient id="paint0_linear_146_1516" x1="1200" y1="0" x2="1200" y2="2382.2" gradientUnits="userSpaceOnUse">
<stop stop-color="#2AABEE"/>
<stop offset="1" stop-color="#229ED9"/>
</linearGradient>
<linearGradient id="paint1_linear_146_1516" x1="1200" y1="0" x2="1200" y2="2382.2" gradientUnits="userSpaceOnUse">
<stop stop-color="#2AABEE"/>
<stop offset="1" stop-color="#229ED9"/>
</linearGradient>
</defs>
</svg>
