<svg width="24" height="24" viewBox="0 0 24 24" fill="none" xmlns="http://www.w3.org/2000/svg">
<g clip-path="url(#clip0_146_1537)">
<path d="M0 11.5176C0 6.09045 0 3.36482 1.67554 1.67638C3.37519 1.15016e-07 6.0874 0 11.5239 0H12.4882C17.9126 0 20.6369 1.15016e-07 22.3245 1.67638C24 3.35276 24 6.09045 24 11.5176V12.4824C24 17.9095 24 20.6352 22.3245 22.3236C20.6489 24 17.9126 24 12.4882 24H11.5239C6.09945 24 3.37519 24 1.6876 22.3236C1.14958e-07 20.6352 0 17.9216 0 12.4824V11.5176Z" fill="#7360F2"/>
<path d="M8.9034 7.35284C8.76019 7.33187 8.61412 7.36071 8.48963 7.43452H8.47884C8.1899 7.60403 7.92946 7.81747 7.70755 8.06866C7.52263 8.28209 7.42246 8.49783 7.39626 8.70587C7.38085 8.82916 7.39164 8.95398 7.42785 9.07187L7.44172 9.07958C7.64976 9.6906 7.92098 10.2785 8.25231 10.8317C8.67971 11.6087 9.20542 12.3273 9.81646 12.9699L9.83495 12.9961L9.86423 13.0177L9.88195 13.0385L9.90353 13.057C10.5484 13.6698 11.2688 14.198 12.0471 14.6288C12.9371 15.1135 13.4772 15.3423 13.8016 15.4379V15.4425C13.8964 15.4718 13.9827 15.4849 14.0697 15.4849C14.3461 15.4651 14.6078 15.3527 14.8125 15.1659C15.0629 14.944 15.2748 14.6828 15.4397 14.3923V14.3869C15.5946 14.0941 15.5422 13.8183 15.3187 13.631C14.8703 13.2384 14.3849 12.89 13.8694 12.5908C13.5242 12.4036 13.1736 12.5169 13.0318 12.7064L12.729 13.0886C12.5734 13.2781 12.2914 13.2519 12.2914 13.2519L12.2837 13.2566C10.1794 12.7195 9.61767 10.589 9.61767 10.589C9.61767 10.589 9.59147 10.2993 9.78641 10.1514L10.1655 9.84624C10.3473 9.6983 10.4737 9.34849 10.2788 9.00329C9.98025 8.48815 9.63268 8.00304 9.24088 7.55472C9.15518 7.44945 9.03516 7.37771 8.90185 7.35207M12.4593 6.42668C12.3572 6.42668 12.2592 6.46727 12.1869 6.53952C12.1147 6.61177 12.0741 6.70976 12.0741 6.81194C12.0741 6.91412 12.1147 7.01211 12.1869 7.08436C12.2592 7.15661 12.3572 7.1972 12.4593 7.1972C13.4333 7.1972 14.2423 7.51542 14.8826 8.12567C15.2116 8.45931 15.4682 8.85458 15.6362 9.28762C15.8049 9.72142 15.882 10.1845 15.8619 10.6484C15.8577 10.7505 15.8941 10.8502 15.9633 10.9255C16.0326 11.0008 16.1288 11.0455 16.231 11.0498C16.3332 11.0541 16.4329 11.0176 16.5082 10.9484C16.5835 10.8792 16.6282 10.7829 16.6325 10.6807C16.6555 10.1102 16.5608 9.54104 16.3543 9.00869C16.1469 8.47363 15.831 7.98726 15.4266 7.58015L15.4189 7.57244C14.6245 6.81348 13.6197 6.42668 12.4593 6.42668Z" fill="white"/>
<path d="M12.4339 7.69384C12.3318 7.69384 12.2338 7.73443 12.1615 7.80668C12.0893 7.87893 12.0487 7.97692 12.0487 8.0791C12.0487 8.18128 12.0893 8.27927 12.1615 8.35152C12.2338 8.42377 12.3318 8.46436 12.4339 8.46436H12.447C13.1497 8.51444 13.6614 8.74868 14.0197 9.13317C14.3872 9.52921 14.5775 10.0216 14.5629 10.6303C14.5605 10.7325 14.5989 10.8314 14.6694 10.9053C14.74 10.9792 14.8371 11.0221 14.9393 11.0244C15.0414 11.0268 15.1404 10.9884 15.2143 10.9178C15.2882 10.8472 15.331 10.7502 15.3334 10.648C15.3519 9.84898 15.0945 9.15937 14.5844 8.60922V8.60767C14.0628 8.04828 13.347 7.7524 12.4856 7.69461L12.4725 7.69307L12.4339 7.69384Z" fill="white"/>
<path d="M12.4136 8.98465C12.3621 8.9801 12.3101 8.98599 12.2609 9.00196C12.2116 9.01793 12.1661 9.04366 12.1271 9.07761C12.088 9.11155 12.0562 9.15303 12.0335 9.19955C12.0108 9.24607 11.9977 9.29668 11.995 9.34837C11.9923 9.40006 12.0001 9.45176 12.0178 9.50039C12.0355 9.54902 12.0629 9.59357 12.0982 9.6314C12.1335 9.66922 12.1761 9.69954 12.2234 9.72054C12.2707 9.74154 12.3218 9.7528 12.3735 9.75363C12.6956 9.77058 12.9014 9.86767 13.0308 9.99788C13.161 10.1289 13.2581 10.3392 13.2758 10.6682C13.2768 10.7199 13.2881 10.7709 13.3092 10.8181C13.3303 10.8654 13.3607 10.9078 13.3985 10.9431C13.4364 10.9783 13.4809 11.0056 13.5295 11.0232C13.5781 11.0408 13.6298 11.0485 13.6814 11.0458C13.7331 11.043 13.7836 11.0299 13.8301 11.0072C13.8766 10.9845 13.918 10.9527 13.9519 10.9137C13.9858 10.8746 14.0115 10.8292 14.0275 10.78C14.0434 10.7308 14.0493 10.6789 14.0448 10.6274C14.0201 10.1651 13.8753 9.75671 13.5786 9.45621C13.2804 9.15571 12.8744 9.00931 12.4136 8.98465Z" fill="white"/>
<path fill-rule="evenodd" clip-rule="evenodd" d="M8.21186 4.41105C10.6637 3.86298 13.2063 3.86298 15.6581 4.41105L15.9193 4.46884C16.6359 4.62948 17.294 4.98542 17.8206 5.49721C18.3472 6.00899 18.7218 6.65663 18.9028 7.3683C19.5257 9.8207 19.5257 12.3899 18.9028 14.8423C18.7218 15.554 18.3472 16.2016 17.8206 16.7134C17.294 17.2252 16.6359 17.5811 15.9193 17.7418L15.6574 17.7996C14.1217 18.1425 12.546 18.2719 10.9749 18.1841L8.93075 20.0133C8.85368 20.0823 8.75951 20.1293 8.65805 20.1495C8.5566 20.1697 8.45159 20.1623 8.35398 20.128C8.25636 20.0938 8.16973 20.034 8.10313 19.9548C8.03652 19.8757 7.99238 19.7801 7.97531 19.6781L7.63705 17.6578C6.98859 17.4556 6.40274 17.0907 5.93536 16.5979C5.46798 16.105 5.13467 15.5006 4.9672 14.8423C4.34427 12.3899 4.34427 9.8207 4.9672 7.3683C5.14823 6.65663 5.52281 6.00899 6.04943 5.49721C6.57604 4.98542 7.2341 4.62948 7.95065 4.46884L8.21186 4.41105ZM15.4062 5.53832C13.1203 5.02732 10.7497 5.02732 8.46382 5.53832L8.20184 5.59688C7.69404 5.71106 7.22774 5.96354 6.85457 6.32637C6.4814 6.6892 6.21593 7.14822 6.08754 7.65262C5.51196 9.91843 5.51196 12.2922 6.08754 14.558C6.21599 15.0625 6.48158 15.5216 6.85489 15.8844C7.2282 16.2473 7.69467 16.4997 8.20261 16.6137L8.27196 16.6292C8.38414 16.6542 8.48629 16.7122 8.56535 16.7957C8.64441 16.8791 8.69678 16.9843 8.71577 17.0976L8.94231 18.4522L10.3847 17.1616C10.4423 17.1099 10.5097 17.0703 10.5829 17.0452C10.6561 17.02 10.7336 17.0098 10.8108 17.0152C12.3511 17.1239 13.8991 17.0084 15.4062 16.6723L15.6674 16.6137C16.1753 16.4997 16.6418 16.2473 17.0151 15.8844C17.3884 15.5216 17.654 15.0625 17.7825 14.558C18.3573 12.2927 18.3573 9.91871 17.7825 7.65262C17.654 7.14813 17.3884 6.68903 17.0151 6.32619C16.6418 5.96335 16.1753 5.71093 15.6674 5.59688L15.4062 5.53832Z" fill="white"/>
</g>
<defs>
<clipPath id="clip0_146_1537">
<rect width="24" height="24" fill="white"/>
</clipPath>
</defs>
</svg>
