<svg width="24" height="24" viewBox="0 0 24 24" fill="none" xmlns="http://www.w3.org/2000/svg">
<g clip-path="url(#clip0_146_1519)">
<path d="M0 11.5176C0 6.09045 0 3.36482 1.67554 1.67638C3.37519 1.15016e-07 6.0874 0 11.5239 0H12.4882C17.9126 0 20.6369 1.15016e-07 22.3245 1.67638C24 3.35276 24 6.09045 24 11.5176V12.4824C24 17.9095 24 20.6352 22.3245 22.3236C20.6489 24 17.9126 24 12.4882 24H11.5239C6.09945 24 3.37519 24 1.6876 22.3236C1.14958e-07 20.6352 0 17.9216 0 12.4824V11.5176Z" fill="#FF7700"/>
<path d="M12.0116 11.904C13.1756 11.904 14.2316 11.424 14.9876 10.668C15.7436 9.91198 16.2236 8.85598 16.2236 7.69198C16.2236 6.52798 15.7436 5.47198 14.9876 4.71598C14.2316 3.95998 13.1756 3.47998 12.0116 3.47998C10.8476 3.47998 9.79157 3.95998 9.03557 4.71598C8.27957 5.45998 7.79957 6.51598 7.79957 7.69198C7.79957 8.86798 8.27957 9.91198 9.03557 10.668C9.79157 11.424 10.8596 11.904 12.0116 11.904ZM10.6676 6.32398C11.0156 5.97598 11.4956 5.75998 12.0236 5.75998C12.5636 5.75998 13.0316 5.97598 13.3796 6.32398C13.7276 6.67198 13.9436 7.15198 13.9436 7.67998C13.9436 8.21998 13.7276 8.68798 13.3796 9.03598C13.0316 9.38398 12.5516 9.59998 12.0236 9.59998C11.4836 9.59998 11.0156 9.38398 10.6676 9.03598C10.3196 8.68798 10.1036 8.20798 10.1036 7.67998C10.1036 7.15198 10.3316 6.67198 10.6676 6.32398Z" fill="white"/>
<path d="M17.6996 13.608L16.4636 11.916C16.3916 11.82 16.2476 11.808 16.1636 11.892C14.9996 12.888 13.5596 13.536 12.0116 13.536C10.4636 13.536 9.03557 12.888 7.85957 11.892C7.77557 11.82 7.63157 11.832 7.55957 11.916L6.32357 13.608C6.26357 13.692 6.27557 13.8 6.34757 13.872C7.39157 14.712 8.60357 15.288 9.86357 15.588L7.24757 20.196C7.17557 20.328 7.27157 20.496 7.41557 20.496H9.97157C10.0556 20.496 10.1276 20.448 10.1516 20.364L11.9756 16.284L13.7996 20.364C13.8236 20.436 13.8956 20.496 13.9796 20.496H16.5356C16.6916 20.496 16.7756 20.34 16.7036 20.196L14.0876 15.588C15.3476 15.288 16.5596 14.736 17.6036 13.872C17.7596 13.8 17.7716 13.692 17.6996 13.608Z" fill="white"/>
</g>
<defs>
<clipPath id="clip0_146_1519">
<rect width="24" height="24" fill="white"/>
</clipPath>
</defs>
</svg>
