<svg width="227" height="41" viewBox="0 0 227 41" fill="none" xmlns="http://www.w3.org/2000/svg">
<path fill-rule="evenodd" clip-rule="evenodd" d="M14.2022 17.8465C16.0544 17.8465 17.4714 19.1135 18.071 20.834L19.5794 25.1097L19.5844 25.1231L19.5849 25.1247C19.733 25.5473 19.8132 26.0013 19.8132 26.4725V30.2425C19.8132 30.3935 19.6911 30.5159 19.5405 30.5159H3.20629C1.4355 30.5159 0 29.0671 0 27.2798C0 26.9016 0.0507264 26.6074 0.182443 26.2011C0.673824 24.6852 1.8491 23.6302 3.34311 23.6302H8.85451C8.84911 23.1171 8.83951 22.2035 8.83413 21.3481C8.83009 20.7067 8.8279 20.0628 8.83099 19.5618L8.83896 18.1181C8.83979 17.9677 8.96168 17.8462 9.11175 17.8462L14.2022 17.8465ZM15.8053 29.712C17.5761 29.712 19.0116 28.2631 19.0116 26.4758C19.0116 26.0976 18.9473 25.7345 18.8291 25.3971L17.3074 21.0823C16.8123 19.6865 15.6961 18.6552 14.2021 18.6552H9.66007C9.60628 18.8679 9.64234 22.3225 9.65599 23.6302C9.65834 23.8556 9.65987 24.0062 9.65987 24.0487C9.65987 24.7934 9.90905 25.4793 10.3278 26.0261C10.4526 26.1891 10.5925 26.3397 10.7453 26.4758L13.8013 29.0022C13.9275 29.1042 14.0614 29.1969 14.2021 29.279C14.6737 29.5544 15.2213 29.712 15.8053 29.712Z" fill="white"/>
<path d="M33.9037 25.2938C33.7624 25.2506 33.6121 25.3255 33.5612 25.4645L29.0066 37.9104C28.9677 38.0167 29.0648 38.1226 29.1738 38.0928L31.5962 37.4308L35.3463 28.5841L33.5378 36.7055C33.516 36.8034 33.5995 36.8916 33.6977 36.8717C34.4785 36.7128 37.3046 36.1096 39.144 35.3463C41.2954 34.4535 42.6818 31.9354 41.4182 29.8019C40.4315 28.1361 40.0092 27.4263 39.8715 27.1952C39.8361 27.1359 39.7801 27.092 39.7141 27.0718L36.8089 26.1828L33.9037 25.2938Z" fill="white"/>
<path d="M14.9138 17.0114C16.766 17.0115 18.183 18.2785 18.7826 19.999L19.0215 20.676L28.059 11.6096L36.0697 24.8237C36.121 24.9083 36.2016 24.9711 36.2962 25L36.8089 25.1569L39.1336 25.8683C39.217 25.8938 39.2911 25.8085 39.2544 25.7295L28.3833 2.36889C28.2942 2.16256 28.0087 2.14607 27.8966 2.34079L25.3893 6.69745C25.3406 6.782 25.3406 6.88615 25.3893 6.9707L25.7937 7.67336L14.318 17.0114L14.9138 17.0114Z" fill="white"/>
<path fill-rule="evenodd" clip-rule="evenodd" d="M22.6648 31.4825C24.4846 31.4825 25.9599 32.9623 25.9599 34.7877C25.9599 36.6131 24.4846 38.0928 22.6648 38.0928H5.09627C3.27643 38.0928 1.80116 36.6131 1.80116 34.7877C1.80116 32.9623 3.27643 31.4825 5.09627 31.4825H22.6648ZM22.6963 33.8581L22.6493 33.8568H5.08082C4.57612 33.8569 4.1676 34.2671 4.16758 34.7724L4.1688 34.8195C4.19322 35.303 4.59185 35.688 5.08082 35.688H22.6493C23.154 35.688 23.5625 35.2777 23.5625 34.7724C23.5625 34.2829 23.1791 33.8826 22.6963 33.8581Z" fill="white"/>
<path d="M79.792 23.441V16.8604C79.792 14.5759 81.1279 13.4337 83.7998 13.4337H89.6975L91.4737 14.6019V16.4904H84.0047C83.8377 16.4904 83.7542 16.5618 83.7542 16.7046V23.5968C83.7542 23.7396 83.8377 23.811 84.0047 23.811H91.4737V25.6995L89.6975 26.8677H83.7998C81.1279 26.8677 79.792 25.7255 79.792 23.441Z" fill="white"/>
<path fill-rule="evenodd" clip-rule="evenodd" d="M93.2256 13.4337V26.8677H97.3738V22.4676L98.6135 21.4162L103.048 26.8677H106.862L107.244 26.2057L101.284 18.9631L106.624 14.0957L106.242 13.4337H102.333L97.3738 17.9506V17.9269L95.828 19.3275L97.3738 17.272V15.3529V13.4337H93.2256Z" fill="white"/>
<path fill-rule="evenodd" clip-rule="evenodd" d="M65.1904 13.4337V26.8677H69.1658V22.4676L70.3538 21.4162L74.6033 26.8677H78.2588L78.6244 26.2057L72.9127 18.9631L78.0304 14.0957L77.6648 13.4337H73.9179L69.1658 17.9506V17.9269L67.6844 19.3275L69.1658 17.272V15.3529V13.4337H65.1904Z" fill="white"/>
<path d="M107.834 26.2447L111.864 13.4337H117.238L121.268 26.2447L120.834 26.8677H117.816L117.114 24.4729H111.988L111.285 26.8677H108.268L107.834 26.2447ZM112.939 21.4162H116.163L114.675 16.4904H114.427L112.939 21.4162Z" fill="white"/>
<path d="M123.02 26.8677V13.4337H130.348C132.954 13.4337 134.257 14.5759 134.257 16.8604V17.9312C134.257 18.3725 134.109 18.7489 133.813 19.0604L133.036 19.8781L133.968 20.5596C134.457 20.91 134.701 21.4292 134.701 22.1171V23.441C134.701 25.7255 133.398 26.8677 130.793 26.8677H123.02ZM126.884 23.811H130.593C130.756 23.811 130.837 23.7396 130.837 23.5968V21.7667C130.837 21.6239 130.756 21.5525 130.593 21.5525H126.884V23.811ZM126.884 18.4958H130.148C130.311 18.4958 130.393 18.4244 130.393 18.2816V16.7046C130.393 16.5618 130.311 16.4904 130.148 16.4904H126.884V18.4958Z" fill="white"/>
<path d="M135.869 26.2447L140.425 13.4337H146.499L151.055 26.2447L150.565 26.8677H147.154L146.359 24.4729H140.565L139.771 26.8677H136.36L135.869 26.2447ZM141.64 21.4162H145.285L143.602 16.4904H143.322L141.64 21.4162Z" fill="white"/>
<path d="M150.471 16.4904V13.4337H162.152V16.4904H158.082V26.8677H154.541V16.4904H150.471Z" fill="white"/>
<path d="M163.905 23.441V16.8604C163.905 14.5759 165.274 13.4337 168.01 13.4337H173.234C175.971 13.4337 177.339 14.5759 177.339 16.8604V23.441C177.339 25.7255 175.971 26.8677 173.234 26.8677H168.01C165.274 26.8677 163.905 25.7255 163.905 23.441ZM167.963 22.8152C167.963 22.958 168.049 23.0294 168.22 23.0294H173.025C173.196 23.0294 173.281 22.958 173.281 22.8152V17.4862C173.281 17.3434 173.196 17.272 173.025 17.272H168.22C168.049 17.272 167.963 17.3434 167.963 17.4862V22.8152Z" fill="white"/>
<path d="M178.795 26.8677V13.4337H186.492C189.148 13.4337 190.477 14.5759 190.477 16.8604V19.5082C190.477 21.7796 189.148 22.9154 186.492 22.9154H182.734V26.8677H178.795ZM182.734 19.8587H186.288C186.454 19.8587 186.537 19.7873 186.537 19.6445V16.7046C186.537 16.5618 186.454 16.4904 186.288 16.4904H182.734V19.8587Z" fill="white"/>
<path d="M197.194 26.8677V13.4337H204.892C207.548 13.4337 208.876 14.5759 208.876 16.8604V19.5082C208.876 21.7796 207.548 22.9154 204.892 22.9154H201.134V26.8677H197.194ZM201.134 19.8587H204.688C204.854 19.8587 204.937 19.7873 204.937 19.6445V16.7046C204.937 16.5618 204.854 16.4904 204.688 16.4904H201.134V19.8587Z" fill="white"/>
<path d="M210.493 13.4337L210.045 14.0567L214.814 22.2336L212.284 26.8677H216.397L223.479 14.0567L223.031 13.4337H219.695L216.804 18.6638L215.802 20.475L216.453 18.0471L213.829 13.4337H210.493Z" fill="white"/>
<path d="M62.8545 23.441V16.8604C62.8545 14.5759 61.5186 13.4337 58.8467 13.4337H51.1728V17.063H58.6418C58.8088 17.063 58.8923 17.1344 58.8923 17.2771V18.2859V21.9316V22.0155V23.0243C58.8923 23.167 58.8088 23.2384 58.6418 23.2384H51.1728V26.8677H58.8467C61.5186 26.8677 62.8545 25.7255 62.8545 23.441Z" fill="white"/>
<path d="M58.8923 18.2859V21.9316V22.0155H51.1728V18.2859H58.8923Z" fill="white"/>
<path d="M193.109 26.8669C192.141 26.8669 191.356 26.0824 191.356 25.1147C191.356 24.1469 192.141 23.3624 193.109 23.3624C194.076 23.3624 194.861 24.1469 194.861 25.1147C194.861 26.0824 194.076 26.8669 193.109 26.8669Z" fill="white"/>
</svg>
