<svg width="176" height="14" viewBox="0 0 176 14" fill="none" xmlns="http://www.w3.org/2000/svg">
<path d="M28.6191 10.0073V3.42664C28.6191 1.14221 29.9551 0 32.6269 0H38.5247L40.3008 1.16817V3.05671H32.8318C32.6649 3.05671 32.5814 3.1281 32.5814 3.27088V10.1631C32.5814 10.3059 32.6649 10.3773 32.8318 10.3773H40.3008V12.2658L38.5247 13.434H32.6269C29.9551 13.434 28.6191 12.2918 28.6191 10.0073Z" fill="white"/>
<path fill-rule="evenodd" clip-rule="evenodd" d="M42.0527 0V13.434H46.2009V9.03385L47.4406 7.9825L51.8749 13.434H55.6893L56.0708 12.772L50.1107 5.52934L55.4509 0.661964L55.0695 0H51.1597L46.2009 4.51693V4.49314L44.6552 5.89377L46.2009 3.83828V1.91914V0H42.0527Z" fill="white"/>
<path fill-rule="evenodd" clip-rule="evenodd" d="M14.0176 0V13.434H17.9929V9.03385L19.181 7.9825L23.4305 13.434H27.086L27.4515 12.772L21.7398 5.52934L26.8575 0.661964L26.492 0H22.7451L17.9929 4.51693V4.49314L16.5116 5.89377L17.9929 3.83828V1.91914V0H14.0176Z" fill="white"/>
<path d="M56.6611 12.8109L60.6913 0H66.0649L70.0951 12.8109L69.6611 13.434H66.6436L65.9409 11.0392H60.8153L60.1126 13.434H57.0952L56.6611 12.8109ZM61.766 7.9825H64.9902L63.5021 3.05671H63.2541L61.766 7.9825Z" fill="white"/>
<path d="M71.8467 13.434V0H79.1755C81.7813 0 83.0842 1.14221 83.0842 3.42664V4.49746C83.0842 4.93877 82.9362 5.31518 82.64 5.62669L81.8627 6.44441L82.7955 7.12584C83.2841 7.47629 83.5284 7.99548 83.5284 8.6834V10.0073C83.5284 12.2918 82.2255 13.434 79.6197 13.434H71.8467ZM75.711 10.3773H79.4198C79.5827 10.3773 79.6641 10.3059 79.6641 10.1631V8.33295C79.6641 8.19018 79.5827 8.11879 79.4198 8.11879H75.711V10.3773ZM75.711 5.06207H78.9756C79.1385 5.06207 79.2199 4.99068 79.2199 4.84791V3.27088C79.2199 3.1281 79.1385 3.05671 78.9756 3.05671H75.711V5.06207Z" fill="white"/>
<path d="M84.6963 12.8109L89.2522 0H95.3266L99.8825 12.8109L99.3919 13.434H95.9808L95.1865 11.0392H89.3923L88.598 13.434H85.1869L84.6963 12.8109ZM90.467 7.9825H94.1117L92.4296 3.05671H92.1492L90.467 7.9825Z" fill="white"/>
<path d="M99.2979 3.05671V0H110.98V3.05671H106.909V13.434H103.368V3.05671H99.2979Z" fill="white"/>
<path d="M112.732 10.0073V3.42664C112.732 1.14221 114.101 0 116.837 0H122.062C124.798 0 126.166 1.14221 126.166 3.42664V10.0073C126.166 12.2918 124.798 13.434 122.062 13.434H116.837C114.101 13.434 112.732 12.2918 112.732 10.0073ZM116.791 9.38152C116.791 9.5243 116.876 9.59569 117.047 9.59569H121.852C122.023 9.59569 122.108 9.5243 122.108 9.38152V4.05244C122.108 3.90966 122.023 3.83828 121.852 3.83828H117.047C116.876 3.83828 116.791 3.90966 116.791 4.05244V9.38152Z" fill="white"/>
<path d="M127.622 13.434V0H135.319C137.976 0 139.304 1.14221 139.304 3.42664V6.07449C139.304 8.34593 137.976 9.48165 135.319 9.48165H131.561V13.434H127.622ZM131.561 6.42494H135.116C135.282 6.42494 135.365 6.35355 135.365 6.21077V3.27088C135.365 3.1281 135.282 3.05671 135.116 3.05671H131.561V6.42494Z" fill="white"/>
<path d="M146.021 13.434V0H153.719C156.375 0 157.703 1.14221 157.703 3.42664V6.07449C157.703 8.34593 156.375 9.48165 153.719 9.48165H149.961V13.434H146.021ZM149.961 6.42494H153.515C153.681 6.42494 153.764 6.35355 153.764 6.21077V3.27088C153.764 3.1281 153.681 3.05671 153.515 3.05671H149.961V6.42494Z" fill="white"/>
<path d="M159.32 0L158.872 0.623004L163.641 8.79993L161.111 13.434H165.224L172.306 0.623004L171.858 0H168.522L165.631 5.23006L164.629 7.04128L165.28 4.6134L162.656 0H159.32Z" fill="white"/>
<path d="M11.6816 10.0073V3.42663C11.6816 1.14221 10.3457 0 7.67388 0H-6.67572e-05V3.62926H7.46894C7.63593 3.62926 7.71942 3.70064 7.71942 3.84342V4.85215V8.49786V8.58181V9.59054C7.71942 9.73332 7.63593 9.80471 7.46894 9.80471H-6.67572e-05V13.434H7.67388C10.3457 13.434 11.6816 12.2918 11.6816 10.0073Z" fill="white"/>
<path d="M7.71942 4.85215V8.49786V8.58181H-6.67572e-05V4.85215H7.71942Z" fill="white"/>
<path d="M141.936 13.4332C140.968 13.4332 140.184 12.6487 140.184 11.681C140.184 10.7132 140.968 9.92871 141.936 9.92871C142.904 9.92871 143.688 10.7132 143.688 11.681C143.688 12.6487 142.904 13.4332 141.936 13.4332Z" fill="white"/>
</svg>
