<svg width="24" height="24" viewBox="0 0 24 24" fill="none" xmlns="http://www.w3.org/2000/svg">
<rect width="24" height="24" rx="12" fill="url(#paint0_linear_146_1526)"/>
<path d="M0 11.5176C0 6.09045 0 3.36482 1.67554 1.67638C3.37519 1.4377e-07 6.0874 0 11.5239 0H12.4882C17.9126 0 20.6369 1.4377e-07 22.3245 1.67638C24 3.35276 24 6.09045 24 11.5176V12.4824C24 17.9095 24 20.6352 22.3245 22.3236C20.6489 24 17.9126 24 12.4882 24H11.5239C6.09945 24 3.37519 24 1.6876 22.3236C1.43698e-07 20.6352 0 17.9216 0 12.4824V11.5176Z" fill="white"/>
<mask id="mask0_146_1526" style="mask-type:alpha" maskUnits="userSpaceOnUse" x="4" y="4" width="16" height="16">
<rect x="4" y="4" width="16" height="16" fill="#D9D9D9"/>
</mask>
<g mask="url(#mask0_146_1526)">
<path d="M9.28385 18.4531C8.43316 18.0885 7.6888 17.5872 7.05078 16.9492C6.41276 16.3112 5.91146 15.5668 5.54688 14.7161C5.18229 13.8655 5 12.957 5 11.9909C5 11.0247 5.18229 10.1194 5.54688 9.27474C5.91146 8.43012 6.41276 7.6888 7.05078 7.05078C7.6888 6.41276 8.43316 5.91146 9.28385 5.54688C10.1345 5.18229 11.043 5 12.0091 5C12.9753 5 13.8806 5.18229 14.7253 5.54688C15.5699 5.91146 16.3112 6.41276 16.9492 7.05078C17.5872 7.6888 18.0885 8.43012 18.4531 9.27474C18.8177 10.1194 19 11.0247 19 11.9909C19 12.957 18.8177 13.8655 18.4531 14.7161C18.0885 15.5668 17.5872 16.3112 16.9492 16.9492C16.3112 17.5872 15.5699 18.0885 14.7253 18.4531C13.8806 18.8177 12.9753 19 12.0091 19C11.043 19 10.1345 18.8177 9.28385 18.4531ZM12 17.6328C12.2066 17.4262 12.4132 17.0404 12.6198 16.4753C12.8264 15.9102 12.9844 15.2934 13.0938 14.625H10.9062C11.0156 15.2934 11.1736 15.9102 11.3802 16.4753C11.5868 17.0404 11.7934 17.4262 12 17.6328ZM10.3411 17.4505C10.171 17.0859 10.0221 16.6667 9.89453 16.1927C9.76693 15.7188 9.66059 15.1962 9.57552 14.625H6.96875C7.32118 15.3177 7.78906 15.9102 8.3724 16.4023C8.95573 16.8945 9.61198 17.2439 10.3411 17.4505ZM13.6589 17.4505C14.388 17.2439 15.0443 16.8945 15.6276 16.4023C16.2109 15.9102 16.6788 15.3177 17.0312 14.625H14.4245C14.3394 15.1962 14.2331 15.7188 14.1055 16.1927C13.9779 16.6667 13.829 17.0859 13.6589 17.4505ZM6.47656 13.3125H9.41146C9.38715 13.0816 9.37196 12.8537 9.36589 12.6289C9.35981 12.4041 9.35677 12.1823 9.35677 11.9635C9.35677 11.7448 9.35981 11.5291 9.36589 11.3164C9.37196 11.1037 9.38715 10.8941 9.41146 10.6875H6.47656C6.4158 10.9184 6.37326 11.1402 6.34896 11.3529C6.32465 11.5655 6.3125 11.7812 6.3125 12C6.3125 12.2188 6.32465 12.4345 6.34896 12.6471C6.37326 12.8598 6.4158 13.0816 6.47656 13.3125ZM10.7422 13.3125H13.2578C13.2821 13.0694 13.2973 12.8416 13.3034 12.6289C13.3095 12.4162 13.3125 12.2066 13.3125 12C13.3125 11.7934 13.3095 11.5807 13.3034 11.362C13.2973 11.1432 13.2821 10.9184 13.2578 10.6875H10.7422C10.7179 10.9184 10.7027 11.1432 10.6966 11.362C10.6905 11.5807 10.6875 11.7934 10.6875 12C10.6875 12.2066 10.6905 12.4193 10.6966 12.638C10.7027 12.8568 10.7179 13.0816 10.7422 13.3125ZM14.5885 13.3125H17.5234C17.5842 13.0816 17.6267 12.8598 17.651 12.6471C17.6753 12.4345 17.6875 12.2188 17.6875 12C17.6875 11.7812 17.6753 11.5625 17.651 11.3438C17.6267 11.125 17.5842 10.9062 17.5234 10.6875H14.5885C14.6128 10.9184 14.628 11.1463 14.6341 11.3711C14.6402 11.5959 14.6432 11.8177 14.6432 12.0365C14.6432 12.2552 14.6402 12.4709 14.6341 12.6836C14.628 12.8963 14.6128 13.1059 14.5885 13.3125ZM14.4245 9.375H17.0312C16.6788 8.68229 16.2109 8.08984 15.6276 7.59766C15.0443 7.10547 14.388 6.75608 13.6589 6.54948C13.829 6.91406 13.9779 7.33333 14.1055 7.80729C14.2331 8.28125 14.3394 8.80382 14.4245 9.375ZM10.9062 9.375H13.0938C12.9844 8.7066 12.8264 8.08984 12.6198 7.52474C12.4132 6.95964 12.2066 6.57378 12 6.36719C11.7934 6.57378 11.5868 6.95964 11.3802 7.52474C11.1736 8.08984 11.0156 8.7066 10.9062 9.375ZM6.96875 9.375H9.57552C9.66059 8.80382 9.76693 8.28125 9.89453 7.80729C10.0221 7.33333 10.171 6.91406 10.3411 6.54948C9.61198 6.75608 8.95573 7.10547 8.3724 7.59766C7.78906 8.08984 7.32118 8.68229 6.96875 9.375Z" fill="#3B4C5E"/>
</g>
<defs>
<linearGradient id="paint0_linear_146_1526" x1="1200" y1="0" x2="1200" y2="2382.2" gradientUnits="userSpaceOnUse">
<stop stop-color="#2AABEE"/>
<stop offset="1" stop-color="#229ED9"/>
</linearGradient>
</defs>
</svg>
