<svg width="24" height="24" viewBox="0 0 24 24" fill="none" xmlns="http://www.w3.org/2000/svg">
<rect width="24" height="24" rx="12" fill="url(#paint0_linear_146_1531)"/>
<path d="M0 11.5176C0 6.09045 0 3.36482 1.67554 1.67638C3.37519 1.4377e-07 6.0874 0 11.5239 0H12.4882C17.9126 0 20.6369 1.4377e-07 22.3245 1.67638C24 3.35276 24 6.09045 24 11.5176V12.4824C24 17.9095 24 20.6352 22.3245 22.3236C20.6489 24 17.9126 24 12.4882 24H11.5239C6.09945 24 3.37519 24 1.6876 22.3236C1.43698e-07 20.6352 0 17.9216 0 12.4824V11.5176Z" fill="white"/>
<path d="M6.3125 18.124C5.95156 18.124 5.64258 17.9893 5.38555 17.7199C5.12852 17.4505 5 17.1266 5 16.7483V8.49368C5 8.1153 5.12852 7.79243 5.38555 7.52507C5.64258 7.2577 5.95156 7.12402 6.3125 7.12402H17.6875C18.0484 7.12402 18.3574 7.25872 18.6145 7.52812C18.8715 7.79752 19 8.12141 19 8.49979V16.7544C19 17.1328 18.8715 17.4556 18.6145 17.723C18.3574 17.9903 18.0484 18.124 17.6875 18.124H6.3125ZM12 13.5407L6.3125 10.1223V16.749H17.6875V10.1223L12 13.5407ZM12 11.9174L17.6875 8.49902H6.3125L12 11.9174ZM6.3125 10.1223V8.49902V16.749V10.1223Z" fill="#3B4C5E"/>
<defs>
<linearGradient id="paint0_linear_146_1531" x1="1200" y1="0" x2="1200" y2="2382.2" gradientUnits="userSpaceOnUse">
<stop stop-color="#2AABEE"/>
<stop offset="1" stop-color="#229ED9"/>
</linearGradient>
</defs>
</svg>
