<svg width="24" height="24" viewBox="0 0 24 24" fill="none" xmlns="http://www.w3.org/2000/svg">
<g clip-path="url(#clip0_146_1540)">
<path d="M0 11.52C0 6.08942 0 3.37414 1.68707 1.68707C3.37414 0 6.08942 0 11.52 0H12.48C17.9106 0 20.6259 0 22.3129 1.68707C24 3.37414 24 6.08942 24 11.52V12.48C24 17.9106 24 20.6259 22.3129 22.3129C20.6259 24 17.9106 24 12.48 24H11.52C6.08942 24 3.37414 24 1.68707 22.3129C0 20.6259 0 17.9106 0 12.48V11.52Z" fill="#25D366"/>
<path d="M17.5447 6.23299C16.8411 5.52252 16.0032 4.95919 15.0797 4.57582C14.1562 4.19246 13.1656 3.99673 12.1657 4.00004C7.97603 4.00004 4.56139 7.41469 4.56139 11.6043C4.56139 12.9472 4.91436 14.2517 5.57427 15.4027L4.5 19.3468L8.52852 18.2879C9.64116 18.894 10.8919 19.2163 12.1657 19.2163C16.3554 19.2163 19.77 15.8017 19.77 11.612C19.77 9.57858 18.9796 7.66791 17.5447 6.23299ZM12.1657 17.9272C11.03 17.9272 9.9174 17.6203 8.94288 17.0448L8.71268 16.9066L6.31859 17.5359L6.95548 15.2032L6.80201 14.9653C6.17091 13.9578 5.83588 12.7932 5.83517 11.6043C5.83517 8.12064 8.67431 5.28149 12.158 5.28149C13.8462 5.28149 15.4345 5.9414 16.6239 7.13845C17.2129 7.72459 17.6797 8.42185 17.9972 9.18979C18.3146 9.95773 18.4764 10.7811 18.4732 11.612C18.4885 15.0957 15.6494 17.9272 12.1657 17.9272ZM15.6341 13.2004C15.4422 13.1083 14.5061 12.6479 14.3373 12.5789C14.1608 12.5175 14.038 12.4868 13.9075 12.6709C13.7771 12.8628 13.4165 13.2925 13.309 13.4153C13.2016 13.5457 13.0865 13.5611 12.8947 13.4613C12.7028 13.3692 12.089 13.162 11.3677 12.5175C10.7998 12.011 10.4238 11.3895 10.3087 11.1977C10.2013 11.0058 10.2934 10.9061 10.3931 10.8063C10.4776 10.7219 10.585 10.5838 10.6771 10.4764C10.7691 10.3689 10.8075 10.2845 10.8689 10.1618C10.9303 10.0313 10.8996 9.92388 10.8535 9.8318C10.8075 9.73972 10.4238 8.80357 10.2704 8.4199C10.1169 8.05158 9.95576 8.09762 9.84066 8.08995H9.47234C9.34189 8.08995 9.14239 8.13599 8.9659 8.32782C8.79709 8.51965 8.30599 8.98006 8.30599 9.91621C8.30599 10.8524 8.98892 11.7578 9.081 11.8806C9.17308 12.011 10.4238 13.9294 12.3268 14.7504C12.7796 14.9499 13.1325 15.065 13.4088 15.1494C13.8615 15.2952 14.2759 15.2722 14.6058 15.2262C14.9741 15.1725 15.7338 14.7658 15.8873 14.3207C16.0484 13.8757 16.0484 13.4997 15.9947 13.4153C15.941 13.3309 15.8259 13.2925 15.6341 13.2004Z" fill="white"/>
</g>
<defs>
<clipPath id="clip0_146_1540">
<rect width="24" height="24" fill="white"/>
</clipPath>
</defs>
</svg>
