<svg width="24" height="24" viewBox="0 0 24 24" fill="none" xmlns="http://www.w3.org/2000/svg">
<g clip-path="url(#clip0_146_1520)">
<path d="M0 11.52C0 6.08942 0 3.37414 1.68707 1.68707C3.37414 0 6.08942 0 11.52 0H12.48C17.9106 0 20.6259 0 22.3129 1.68707C24 3.37414 24 6.08942 24 11.52V12.48C24 17.9106 24 20.6259 22.3129 22.3129C20.6259 24 17.9106 24 12.48 24H11.52C6.08942 24 3.37414 24 1.68707 22.3129C0 20.6259 0 17.9106 0 12.48V11.52Z" fill="#0077FF"/>
<path d="M12.7967 17.269C7.38089 17.269 4.29181 13.5561 4.16309 7.37793H6.87597C6.96507 11.9126 8.96503 13.8334 10.5492 14.2294V7.37793H13.1037V11.2888C14.6681 11.1205 16.3114 9.33833 16.8659 7.37793H19.4204C18.9947 9.79378 17.2125 11.5759 15.9452 12.3086C17.2125 12.9027 19.2423 14.4571 20.0146 17.269H17.2026C16.5987 15.3878 15.0938 13.9324 13.1037 13.7343V17.269H12.7967Z" fill="white"/>
</g>
<defs>
<clipPath id="clip0_146_1520">
<rect width="24" height="24" fill="white"/>
</clipPath>
</defs>
</svg>
