<svg width="0" height="0" class="hidden">
  <symbol fill="none" xmlns="http://www.w3.org/2000/svg" viewBox="0 0 16 16" id="visibility">
    <path d="M9.98411 9.98335C10.5286 9.4389 10.8008 8.77779 10.8008 8.00001C10.8008 7.22223 10.5286 6.56112 9.98411 6.01668C9.43967 5.47223 8.77856 5.20001 8.00078 5.20001C7.223 5.20001 6.56189 5.47223 6.01745 6.01668C5.473 6.56112 5.20078 7.22223 5.20078 8.00001C5.20078 8.77779 5.473 9.4389 6.01745 9.98335C6.56189 10.5278 7.223 10.8 8.00078 10.8C8.77856 10.8 9.43967 10.5278 9.98411 9.98335ZM6.86745 9.13335C6.55634 8.82223 6.40078 8.44446 6.40078 8.00001C6.40078 7.55557 6.55634 7.17779 6.86745 6.86668C7.17856 6.55557 7.55634 6.40001 8.00078 6.40001C8.44523 6.40001 8.823 6.55557 9.13411 6.86668C9.44523 7.17779 9.60078 7.55557 9.60078 8.00001C9.60078 8.44446 9.44523 8.82223 9.13411 9.13335C8.823 9.44446 8.44523 9.60001 8.00078 9.60001C7.55634 9.60001 7.17856 9.44446 6.86745 9.13335ZM3.66745 11.4917C2.36745 10.6195 1.41189 9.45557 0.800781 8.00001C1.41189 6.54446 2.36745 5.38057 3.66745 4.50835C4.96745 3.63612 6.41189 3.20001 8.00078 3.20001C9.58967 3.20001 11.0341 3.63612 12.3341 4.50835C13.6341 5.38057 14.5897 6.54446 15.2008 8.00001C14.5897 9.45557 13.6341 10.6195 12.3341 11.4917C11.0341 12.3639 9.58967 12.8 8.00078 12.8C6.41189 12.8 4.96745 12.3639 3.66745 11.4917ZM11.4508 10.6333C12.5063 9.9889 13.3174 9.11112 13.8841 8.00001C13.3174 6.8889 12.5063 6.01112 11.4508 5.36668C10.3952 4.72223 9.24522 4.40001 8.00078 4.40001C6.75634 4.40001 5.60634 4.72223 4.55078 5.36668C3.49523 6.01112 2.68411 6.8889 2.11745 8.00001C2.68411 9.11112 3.49523 9.9889 4.55078 10.6333C5.60634 11.2778 6.75634 11.6 8.00078 11.6C9.24522 11.6 10.3952 11.2778 11.4508 10.6333Z" fill="currentColor"></path>
  </symbol>
  <symbol fill="none" xmlns="http://www.w3.org/2000/svg" viewBox="0 0 16 16" id="print">
    <path d="M11.0625 5.42857V3.28571H4.9375V5.42857H3.625V2H12.375V5.42857H11.0625ZM12.1524 8.42857C12.3373 8.42857 12.4935 8.36732 12.6211 8.24482C12.7487 8.12232 12.8125 7.97054 12.8125 7.78946C12.8125 7.60839 12.75 7.45536 12.6249 7.33036C12.4999 7.20536 12.3449 7.14286 12.1601 7.14286C11.9752 7.14286 11.819 7.20411 11.6914 7.32661C11.5638 7.44911 11.5 7.60089 11.5 7.78196C11.5 7.96304 11.5625 8.11607 11.6876 8.24107C11.8126 8.36607 11.9676 8.42857 12.1524 8.42857ZM11.0625 12.7143V10.1429H4.9375V12.7143H11.0625ZM12.375 14H3.625V11.4286H1V7.14286C1 6.66667 1.17014 6.2619 1.51042 5.92857C1.85069 5.59524 2.26389 5.42857 2.75 5.42857H13.25C13.7361 5.42857 14.1493 5.59524 14.4896 5.92857C14.8299 6.2619 15 6.66667 15 7.14286V11.4286H12.375V14ZM13.7057 10.1429V7.39875C13.7057 7.20435 13.6328 7.04167 13.487 6.91071C13.3411 6.77976 13.171 6.71429 12.9766 6.71429H3.00521C2.80894 6.71429 2.64445 6.78 2.51174 6.91143C2.37891 7.04286 2.3125 7.20571 2.3125 7.4V10.1429H3.625V8.85714H12.375V10.1429H13.7057Z" fill="currentColor"></path>
  </symbol>
  <symbol fill="none" xmlns="http://www.w3.org/2000/svg" viewBox="0 0 16 16" id="menu">
    <circle cx="8.5" cy="3.5" r="1.5" fill="currentColor"></circle>
    <circle cx="8.5" cy="8.5" r="1.5" fill="currentColor"></circle>
    <circle cx="8.5" cy="13.5" r="1.5" fill="currentColor"></circle>
  </symbol>
  <symbol fill="none" xmlns="http://www.w3.org/2000/svg" viewBox="0 0 16 16" id="search">
    <path d="M12.7504 13.6L8.76706 9.61669C8.43372 9.86114 8.06822 10.0528 7.67056 10.1917C7.27289 10.3306 6.84967 10.4 6.40089 10.4C5.28945 10.4 4.34484 10.0111 3.56706 9.23336C2.78928 8.45558 2.40039 7.51114 2.40039 6.40002C2.40039 5.28891 2.78928 4.34447 3.56706 3.56669C4.34484 2.78891 5.28928 2.40002 6.40039 2.40002C7.5115 2.40002 8.45595 2.78891 9.23372 3.56669C10.0115 4.34447 10.4004 5.28908 10.4004 6.40053C10.4004 6.8493 10.3309 7.27252 10.1921 7.67019C10.0532 8.06786 9.8615 8.43336 9.61706 8.76669L13.6004 12.75L12.7504 13.6ZM6.40039 9.20002C7.17817 9.20002 7.83928 8.9278 8.38372 8.38336C8.92817 7.83891 9.20039 7.1778 9.20039 6.40002C9.20039 5.62225 8.92817 4.96114 8.38372 4.41669C7.83928 3.87225 7.17817 3.60002 6.40039 3.60002C5.62261 3.60002 4.9615 3.87225 4.41706 4.41669C3.87261 4.96114 3.60039 5.62225 3.60039 6.40002C3.60039 7.1778 3.87261 7.83891 4.41706 8.38336C4.9615 8.9278 5.62261 9.20002 6.40039 9.20002Z" fill="currentColor"></path>
  </symbol>
  <symbol fill="none" xmlns="http://www.w3.org/2000/svg" viewBox="0 0 16 16" id="favorite">
    <path d="M8 15L7.08854 14.1595C5.87326 13.0512 4.87066 12.1018 4.08073 11.3111C3.2908 10.5204 2.66797 9.81681 2.21224 9.20043C1.75651 8.58405 1.44054 8.02059 1.26432 7.51006C1.08811 6.99952 1 6.47653 1 5.94109C1 4.83285 1.37066 3.89895 2.11198 3.13937C2.8533 2.37979 3.76476 2 4.84635 2C5.44184 2 6.0191 2.13075 6.57812 2.39224C7.13715 2.65374 7.61111 3.02107 8 3.49425C8.38889 3.02107 8.86285 2.65374 9.42188 2.39224C9.9809 2.13075 10.5582 2 11.1536 2C12.2352 2 13.1467 2.37979 13.888 3.13937C14.6293 3.89895 15 4.83285 15 5.94109C15 6.47653 14.9149 6.99329 14.7448 7.49138C14.5747 7.98946 14.2617 8.54358 13.806 9.15374C13.3503 9.76389 12.7244 10.4705 11.9284 11.2737C11.1324 12.0769 10.1146 13.0512 8.875 14.1968L8 15ZM8 13.1882C9.13021 12.1547 10.0599 11.2737 10.7891 10.5453C11.5182 9.81681 12.0985 9.18175 12.5299 8.64009C12.9614 8.09842 13.2622 7.6159 13.4323 7.19253C13.6024 6.76916 13.6875 6.35201 13.6875 5.94109C13.6875 5.20642 13.4444 4.59004 12.9583 4.09195C12.4722 3.59387 11.8707 3.34483 11.1536 3.34483C10.7283 3.34483 10.3303 3.43511 9.95964 3.61566C9.58898 3.79622 9.26997 4.04837 9.0026 4.37213L8.36458 5.13793H7.63542L6.9974 4.37213C6.73003 4.04837 6.40495 3.79622 6.02214 3.61566C5.63932 3.43511 5.2474 3.34483 4.84635 3.34483C4.12934 3.34483 3.52778 3.59387 3.04167 4.09195C2.55556 4.59004 2.3125 5.20642 2.3125 5.94109C2.3125 6.35201 2.39149 6.75982 2.54948 7.16451C2.70747 7.56921 2.99609 8.03927 3.41536 8.57471C3.83464 9.11015 4.41189 9.74521 5.14714 10.4799C5.88238 11.2146 6.83333 12.1173 8 13.1882Z" fill="currentColor"></path>
  </symbol>
  <symbol fill="none" xmlns="http://www.w3.org/2000/svg" viewBox="0 0 16 16" id="officialDealer">
    <path d="M7.28862 13.6035C6.4608 13.9583 5.49408 13.6422 5.02796 12.8715C4.77468 12.4528 4.35705 12.1511 3.87979 12.0428C3.00448 11.8441 2.40568 11.0213 2.48638 10.1274C2.53036 9.64023 2.37124 9.15376 2.04629 8.78818C1.44959 8.1169 1.44959 7.10532 2.04629 6.43404C2.37124 6.06846 2.53036 5.58199 2.48638 5.09485C2.40568 4.20092 3.00448 3.37809 3.87979 3.17944C4.35705 3.07112 4.77468 2.76944 5.02796 2.35068C5.49408 1.58004 6.4608 1.26395 7.28862 1.61873C7.74289 1.81342 8.25711 1.81342 8.71138 1.61873C9.5392 1.26395 10.5059 1.58004 10.972 2.35068C11.2253 2.76944 11.643 3.07112 12.1202 3.17944C12.9955 3.37809 13.5943 4.20092 13.5136 5.09485C13.4696 5.58199 13.6288 6.06846 13.9537 6.43404C14.5504 7.10532 14.5504 8.1169 13.9537 8.78818C13.6288 9.15376 13.4696 9.64023 13.5136 10.1274C13.5943 11.0213 12.9955 11.8441 12.1202 12.0428C11.643 12.1511 11.2253 12.4528 10.972 12.8715C10.5059 13.6422 9.5392 13.9583 8.71138 13.6035C8.25711 13.4088 7.74289 13.4088 7.28862 13.6035ZM7.17361 9.94444L11.0301 6.10417L10.2037 5.27778L7.17361 8.29167L5.7963 6.93056L4.96991 7.75694L7.17361 9.94444Z" fill="currentColor"></path>
    <path d="M11.0328 6.10419L7.17636 9.94447L4.97266 7.75697L5.79905 6.93058L7.17636 8.29169L10.2065 5.2778L11.0328 6.10419Z" fill="white"></path>
  </symbol>
  <symbol fill="none" xmlns="http://www.w3.org/2000/svg" viewBox="0 0 16 16" id="premium">
    <path d="M3.1875 14V12.7143H12.8125V14H3.1875ZM3.1875 11.8571L2.27604 6.69643C2.25174 6.70833 2.22439 6.71429 2.19401 6.71429H2.09375C1.78993 6.71429 1.53168 6.61012 1.31901 6.40179C1.10634 6.19345 1 5.94048 1 5.64286C1 5.34524 1.10634 5.09226 1.31901 4.88393C1.53168 4.6756 1.78993 4.57143 2.09375 4.57143C2.39757 4.57143 2.65582 4.6756 2.86849 4.88393C3.08116 5.09226 3.1875 5.34524 3.1875 5.64286C3.1875 5.72619 3.17839 5.80357 3.16016 5.875C3.14193 5.94643 3.11458 6.01786 3.07812 6.08929L5.375 7.14286L7.41667 3.98214C7.25868 3.8869 7.13411 3.75815 7.04297 3.59589C6.95182 3.43351 6.90625 3.25869 6.90625 3.07143C6.90625 2.77381 7.01259 2.52083 7.22526 2.3125C7.43793 2.10417 7.69618 2 8 2C8.30382 2 8.56207 2.10417 8.77474 2.3125C8.98741 2.52083 9.09375 2.77381 9.09375 3.07143C9.09375 3.2619 9.04818 3.4375 8.95703 3.59821C8.86589 3.75893 8.74132 3.8869 8.58333 3.98214L10.625 7.14286L12.9219 6.08929C12.8854 6.01786 12.8581 5.94643 12.8398 5.875C12.8216 5.80357 12.8125 5.72619 12.8125 5.64286C12.8125 5.34524 12.9188 5.09226 13.1315 4.88393C13.3442 4.6756 13.6024 4.57143 13.9062 4.57143C14.2101 4.57143 14.4683 4.6756 14.681 4.88393C14.8937 5.09226 15 5.34524 15 5.64286C15 5.94048 14.8937 6.19345 14.681 6.40179C14.4683 6.61012 14.2101 6.71429 13.9062 6.71429H13.806C13.7756 6.71429 13.7483 6.70833 13.724 6.69643L12.8125 11.8571H3.1875Z" fill="currentColor"></path>
  </symbol>
  <symbol fill="none" xmlns="http://www.w3.org/2000/svg" viewBox="0 0 16 16" id="reportSpam">
    <path d="M8 11.75C8.20833 11.75 8.38542 11.6771 8.53125 11.5312C8.67708 11.3854 8.75 11.2083 8.75 11C8.75 10.7917 8.67708 10.6146 8.53125 10.4688C8.38542 10.3229 8.20833 10.25 8 10.25C7.79167 10.25 7.61458 10.3229 7.46875 10.4688C7.32292 10.6146 7.25 10.7917 7.25 11C7.25 11.2083 7.32292 11.3854 7.46875 11.5312C7.61458 11.6771 7.79167 11.75 8 11.75ZM7.25 9H8.75V4H7.25V9ZM5.10417 15L1 10.875V5.10417L5.10417 1H10.8958L15 5.10417V10.8958L10.875 15H5.10417ZM5.72917 13.5H10.2708L13.5 10.2708V5.72917L10.25 2.5H5.72917L2.5 5.72917V10.2708L5.72917 13.5Z" fill="currentColor"></path>
  </symbol>
  <symbol fill="none" xmlns="http://www.w3.org/2000/svg" viewBox="0 0 16 16" id="sendMessage">
    <path d="M2.3125 14C1.95156 14 1.64258 13.8653 1.38555 13.5959C1.12852 13.3265 1 13.0026 1 12.6242V4.36965C1 3.99127 1.12852 3.6684 1.38555 3.40104C1.64258 3.13368 1.95156 3 2.3125 3H13.6875C14.0484 3 14.3574 3.1347 14.6145 3.4041C14.8715 3.67349 15 3.99738 15 4.37576V12.6303C15 13.0087 14.8715 13.3316 14.6145 13.599C14.3574 13.8663 14.0484 14 13.6875 14H2.3125ZM8 9.41667L2.3125 5.99826V12.625H13.6875V5.99826L8 9.41667ZM8 7.7934L13.6875 4.375H2.3125L8 7.7934ZM2.3125 5.99826V4.375V12.625V5.99826Z" fill="currentColor"></path>
  </symbol>
  <symbol fill="none" xmlns="http://www.w3.org/2000/svg" viewBox="0 0 16 16" id="addBookmarkAlt">
    <path d="M3 15V2.5C3 2.08333 3.14583 1.72917 3.4375 1.4375C3.72917 1.14583 4.08333 1 4.5 1H11.5C11.9167 1 12.2708 1.14583 12.5625 1.4375C12.8542 1.72917 13 2.08333 13 2.5V15L8 13L3 15Z" fill="currentColor"></path>
  </symbol>
  <symbol fill="none" xmlns="http://www.w3.org/2000/svg" viewBox="0 0 16 16" id="addBookmark">
    <path d="M2 15.25V2.75C2 2.33181 2.14583 1.97375 2.4375 1.67583C2.72917 1.37806 3.08333 1.23611 3.5 1.25H8V2.75H3.5V13.0208L7 11.625L10.5 13.0208V7.25H12V15.25L7 13.25L2 15.25ZM11.25 5.5V4H9.75V2.5H11.25V1H12.75V2.5H14.25V4H12.75V5.5H11.25Z" fill="currentColor"></path>
  </symbol>
  <symbol fill="none" xmlns="http://www.w3.org/2000/svg" viewBox="0 0 16 16" id="parameters">
    <path d="M2.5 14V9H1V7.5H5.52083V9H4V14H2.5ZM2.5 6V2H4V6H2.5ZM5.75 6V4.5H7.25V2H8.75V4.5H10.25V6H5.75ZM7.25 14V7.5H8.75V14H7.25ZM12 14V11.5H10.4792V10H15V11.5H13.5V14H12ZM12 8.5V2H13.5V8.5H12Z" fill="currentColor"></path>
  </symbol>
  <symbol fill="none" xmlns="http://www.w3.org/2000/svg" viewBox="0 0 16 16" id="clearAlt">
    <path d="M4.0625 13L3 11.9375L6.9375 8L3 4.0625L4.0625 3L8 6.9375L11.9375 3L13 4.0625L9.0625 8L13 11.9375L11.9375 13L8 9.0625L4.0625 13Z" fill="currentColor"></path>
  </symbol>
  <symbol fill="none" xmlns="http://www.w3.org/2000/svg" viewBox="0 0 16 16" id="clearField">
    <circle cx="8" cy="8" r="7" fill="#E0E5EB"></circle>
    <path d="M4.85 12L4 11.15L7.15 8L4 4.85L4.85 4L8 7.15L11.15 4L12 4.85L8.85 8L12 11.15L11.15 12L8 8.85L4.85 12Z" fill="currentColor"></path>
  </symbol>
  <symbol fill="none" xmlns="http://www.w3.org/2000/svg" viewBox="0 0 16 16" id="chevronRight">
    <path d="M11 8L6.26699 13L5 11.6615L8.46602 8L5 4.33846L6.26699 3L11 8Z" fill="currentColor"></path>
  </symbol>
  <symbol fill="none" xmlns="http://www.w3.org/2000/svg" viewBox="0 0 16 16" id="chevronDown">
    <path d="M8 12L3 7.26699L4.33846 6L8 9.46602L11.6615 6L13 7.26699L8 12Z" fill="currentColor"></path>
  </symbol>
  <symbol fill="none" xmlns="http://www.w3.org/2000/svg" viewBox="0 0 16 16" id="saveSearch">
    <path d="M13.9375 15L8.95833 10C8.54167 10.3194 8.08479 10.566 7.58771 10.7396C7.09063 10.9132 6.5616 11 6.00063 11C4.61132 11 3.43056 10.5139 2.45833 9.54167C1.48611 8.56944 1 7.38889 1 6C1 4.61111 1.48611 3.43056 2.45833 2.45833C3.43056 1.48611 4.61111 1 6 1C7.38889 1 8.56944 1.48611 9.54167 2.45833C10.5139 3.43056 11 4.61132 11 6.00063C11 6.5616 10.9132 7.09063 10.7396 7.58771C10.566 8.08479 10.3264 8.54167 10.0208 8.95833L15 13.9375L13.9375 15ZM6 9.5C6.97222 9.5 7.79861 9.15972 8.47917 8.47917C9.15972 7.79861 9.5 6.97222 9.5 6C9.5 5.02778 9.15972 4.20139 8.47917 3.52083C7.79861 2.84028 6.97222 2.5 6 2.5C5.02778 2.5 4.20139 2.84028 3.52083 3.52083C2.84028 4.20139 2.5 5.02778 2.5 6C2.5 6.97222 2.84028 7.79861 3.52083 8.47917C4.20139 9.15972 5.02778 9.5 6 9.5ZM5.25 8.25V6.75H3.75V5.25H5.25V3.75H6.75V5.25H8.25V6.75H6.75V8.25H5.25Z" fill="currentColor"></path>
  </symbol>
  <symbol fill="none" xmlns="http://www.w3.org/2000/svg" viewBox="0 0 16 16" id="deleteAlt">
    <path d="M4.5 15C4.0875 15 3.73438 14.8531 3.44062 14.5594C3.14687 14.2656 3 13.9125 3 13.5V3.5H2V2H6V1H10V2H14V3.5H13V13.491C13 13.9137 12.8531 14.2708 12.5594 14.5625C12.2656 14.8542 11.9125 15 11.5 15H4.5ZM11.5 3.5H4.5V13.5H11.5V3.5ZM6 12H7.5V5H6V12ZM8.5 12H10V5H8.5V12Z" fill="currentColor"></path>
  </symbol>
  <symbol fill="none" xmlns="http://www.w3.org/2000/svg" viewBox="0 0 16 16" id="delete">
    <path d="M4.5 15C4.0875 15 3.73438 14.8531 3.44062 14.5594C3.14687 14.2656 3 13.9125 3 13.5V3.5H2V2H6V1H10V2H14V3.5H13V13.491C13 13.9137 12.8531 14.2708 12.5594 14.5625C12.2656 14.8542 11.9125 15 11.5 15H4.5ZM6 12H7.5V5H6V12ZM8.5 12H10V5H8.5V12Z" fill="currentColor"></path>
  </symbol>
  <symbol fill="none" xmlns="http://www.w3.org/2000/svg" viewBox="0 0 16 16" id="call">
    <path d="M12.7153 13.5833C11.3708 13.4833 10.0958 13.1528 8.89029 12.5917C7.68473 12.0305 6.60418 11.2722 5.64862 10.3167C4.69307 9.3611 3.94029 8.28333 3.39029 7.08333C2.84029 5.88333 2.50973 4.6111 2.39862 3.26666C2.3764 3.03333 2.44468 2.83055 2.60346 2.65833C2.76212 2.48611 2.96051 2.39999 3.19862 2.39999H5.46529C5.65418 2.39999 5.81807 2.45833 5.95696 2.57499C6.09585 2.69166 6.18751 2.83888 6.23196 3.01666L6.63196 4.78333C6.65418 4.92777 6.64585 5.06666 6.60696 5.19999C6.56807 5.33333 6.50418 5.44444 6.41529 5.53333L4.79862 7.16666C5.02085 7.58888 5.2764 7.99444 5.56529 8.38333C5.85418 8.77222 6.17623 9.13877 6.53146 9.48299C6.86512 9.81655 7.22085 10.125 7.59862 10.4083C7.9764 10.6917 8.3764 10.9444 8.79862 11.1667L10.4486 9.56666C10.5375 9.47777 10.6486 9.41388 10.782 9.37499C10.9153 9.3361 11.0542 9.32777 11.1986 9.34999L12.982 9.73333C13.1708 9.78888 13.3208 9.8861 13.432 10.025C13.5431 10.1639 13.5986 10.3278 13.5986 10.5167V12.7833C13.5986 13.0214 13.5097 13.2198 13.332 13.3785C13.1542 13.5373 12.9486 13.6055 12.7153 13.5833ZM4.24862 5.99999L5.41529 4.83333L5.12929 3.59999H3.63196C3.68751 4.02222 3.76529 4.43055 3.86529 4.82499C3.96529 5.21944 4.09307 5.6111 4.24862 5.99999ZM9.98196 11.7333C10.372 11.8915 10.7695 12.0172 11.1745 12.1103C11.5795 12.2034 11.9875 12.2778 12.3986 12.3333V10.8333L11.1486 10.5667L9.98196 11.7333Z" fill="currentColor"/>
  </symbol>
  <symbol fill="none" xmlns="http://www.w3.org/2000/svg" viewBox="0 0 16 16" id="phoneCallback">
    <path d="M8.79862 7.19999V3.99999H9.99862V5.14999L12.7486 2.39999L13.5986 3.23333L10.8486 5.99999H11.9986V7.19999H8.79862ZM12.7153 13.5833C11.3708 13.4833 10.0958 13.1528 8.89029 12.5917C7.68473 12.0305 6.60418 11.2722 5.64862 10.3167C4.69307 9.3611 3.94029 8.28333 3.39029 7.08333C2.84029 5.88333 2.50973 4.6111 2.39862 3.26666C2.3764 3.03333 2.44468 2.83055 2.60346 2.65833C2.76212 2.48611 2.96051 2.39999 3.19862 2.39999H5.46529C5.65418 2.39999 5.81807 2.45833 5.95696 2.57499C6.09585 2.69166 6.18751 2.83888 6.23196 3.01666L6.63196 4.78333C6.65418 4.92777 6.64585 5.06666 6.60696 5.19999C6.56807 5.33333 6.50418 5.44444 6.41529 5.53333L4.79862 7.16666C5.02085 7.58888 5.2764 7.99444 5.56529 8.38333C5.85418 8.77222 6.17623 9.13877 6.53146 9.48299C6.86512 9.81655 7.22085 10.125 7.59862 10.4083C7.9764 10.6917 8.3764 10.9444 8.79862 11.1667L10.4486 9.56666C10.5375 9.47777 10.6486 9.41388 10.782 9.37499C10.9153 9.3361 11.0542 9.32777 11.1986 9.34999L12.982 9.73333C13.1708 9.78888 13.3208 9.8861 13.432 10.025C13.5431 10.1639 13.5986 10.3278 13.5986 10.5167V12.7833C13.5986 13.0214 13.5097 13.2198 13.332 13.3785C13.1542 13.5373 12.9486 13.6055 12.7153 13.5833ZM4.24862 5.99999L5.41529 4.83333L5.12929 3.59999H3.63196C3.68751 4.02222 3.76529 4.43055 3.86529 4.82499C3.96529 5.21944 4.09307 5.6111 4.24862 5.99999ZM9.98196 11.7333C10.372 11.8915 10.7695 12.0172 11.1745 12.1103C11.5795 12.2034 11.9875 12.2778 12.3986 12.3333V10.8333L11.1486 10.5667L9.98196 11.7333Z" fill="currentColor"/>
  </symbol>
  <symbol fill="none" xmlns="http://www.w3.org/2000/svg" viewBox="0 0 16 16" id="website">
    <path d="M5.51628 13.9C4.7385 13.5667 4.05794 13.1083 3.47461 12.525C2.89128 11.9417 2.43294 11.2611 2.09961 10.4833C1.76628 9.70556 1.59961 8.87501 1.59961 7.99167C1.59961 7.10834 1.76628 6.28056 2.09961 5.50834C2.43294 4.73612 2.89128 4.05834 3.47461 3.47501C4.05794 2.89167 4.7385 2.43334 5.51628 2.10001C6.29405 1.76667 7.12461 1.60001 8.00794 1.60001C8.89128 1.60001 9.71905 1.76667 10.4913 2.10001C11.2635 2.43334 11.9413 2.89167 12.5246 3.47501C13.1079 4.05834 13.5663 4.73612 13.8996 5.50834C14.2329 6.28056 14.3996 7.10834 14.3996 7.99167C14.3996 8.87501 14.2329 9.70556 13.8996 10.4833C13.5663 11.2611 13.1079 11.9417 12.5246 12.525C11.9413 13.1083 11.2635 13.5667 10.4913 13.9C9.71905 14.2333 8.89128 14.4 8.00794 14.4C7.12461 14.4 6.29405 14.2333 5.51628 13.9ZM7.99961 13.15C8.1885 12.9611 8.37739 12.6083 8.56628 12.0917C8.75517 11.575 8.89961 11.0111 8.99961 10.4H6.99961C7.09961 11.0111 7.24405 11.575 7.43294 12.0917C7.62183 12.6083 7.81072 12.9611 7.99961 13.15ZM6.48294 12.9833C6.32739 12.65 6.19128 12.2667 6.07461 11.8333C5.95794 11.4 5.86072 10.9222 5.78294 10.4H3.39961C3.72183 11.0333 4.14961 11.575 4.68294 12.025C5.21628 12.475 5.81628 12.7945 6.48294 12.9833ZM9.51628 12.9833C10.1829 12.7945 10.7829 12.475 11.3163 12.025C11.8496 11.575 12.2774 11.0333 12.5996 10.4H10.2163C10.1385 10.9222 10.0413 11.4 9.92461 11.8333C9.80794 12.2667 9.67183 12.65 9.51628 12.9833ZM2.94961 9.20001H5.63294C5.61072 8.98889 5.59683 8.78056 5.59128 8.57501C5.58572 8.36945 5.58294 8.16667 5.58294 7.96667C5.58294 7.76667 5.58572 7.56945 5.59128 7.37501C5.59683 7.18056 5.61072 6.98889 5.63294 6.80001H2.94961C2.89405 7.01112 2.85517 7.2139 2.83294 7.40834C2.81072 7.60278 2.79961 7.80001 2.79961 8.00001C2.79961 8.20001 2.81072 8.39723 2.83294 8.59167C2.85517 8.78612 2.89405 8.98889 2.94961 9.20001ZM6.84961 9.20001H9.14961C9.17183 8.97778 9.18572 8.76945 9.19128 8.57501C9.19683 8.38056 9.19961 8.1889 9.19961 8.00001C9.19961 7.81112 9.19683 7.61667 9.19128 7.41667C9.18572 7.21667 9.17183 7.01112 9.14961 6.80001H6.84961C6.82739 7.01112 6.8135 7.21667 6.80794 7.41667C6.80239 7.61667 6.79961 7.81112 6.79961 8.00001C6.79961 8.1889 6.80239 8.38334 6.80794 8.58334C6.8135 8.78334 6.82739 8.98889 6.84961 9.20001ZM10.3663 9.20001H13.0496C13.1052 8.98889 13.1441 8.78612 13.1663 8.59167C13.1885 8.39723 13.1996 8.20001 13.1996 8.00001C13.1996 7.80001 13.1885 7.60001 13.1663 7.40001C13.1441 7.20001 13.1052 7.00001 13.0496 6.80001H10.3663C10.3885 7.01112 10.4024 7.21945 10.4079 7.42501C10.4135 7.63056 10.4163 7.83334 10.4163 8.03334C10.4163 8.23334 10.4135 8.43056 10.4079 8.62501C10.4024 8.81945 10.3885 9.01112 10.3663 9.20001ZM10.2163 5.60001H12.5996C12.2774 4.96667 11.8496 4.42501 11.3163 3.97501C10.7829 3.52501 10.1829 3.20556 9.51628 3.01667C9.67183 3.35001 9.80794 3.73334 9.92461 4.16667C10.0413 4.60001 10.1385 5.07778 10.2163 5.60001ZM6.99961 5.60001H8.99961C8.89961 4.98889 8.75517 4.42501 8.56628 3.90834C8.37739 3.39167 8.1885 3.0389 7.99961 2.85001C7.81072 3.0389 7.62183 3.39167 7.43294 3.90834C7.24405 4.42501 7.09961 4.98889 6.99961 5.60001ZM3.39961 5.60001H5.78294C5.86072 5.07778 5.95794 4.60001 6.07461 4.16667C6.19128 3.73334 6.32739 3.35001 6.48294 3.01667C5.81628 3.20556 5.21628 3.52501 4.68294 3.97501C4.14961 4.42501 3.72183 4.96667 3.39961 5.60001Z" fill="currentColor"/>
  </symbol>
  <symbol fill="none" xmlns="http://www.w3.org/2000/svg" viewBox="0 0 16 16" id="sort">
    <path d="M5 8.875V3.51562L2.98077 5.42969L2 4.5L5.69231 1L9.38462 4.5L8.40385 5.42969L6.38462 3.51562V8.875H5ZM10.3077 15L6.61538 11.5L7.59615 10.5703L9.61538 12.4844V7.125H11V12.4844L13.0192 10.5703L14 11.5L10.3077 15Z" fill="currentColor"/>
  </symbol>
  <symbol fill="none" xmlns="http://www.w3.org/2000/svg" viewBox="0 0 16 16" id="count">
    <path d="M7 12.4H15M7 8H15M7 3.6H15M1 10.764V10.6248C1 10.0032 1.5376 9.5 2.2 9.5H2.232C2.8776 9.5 3.4 9.9904 3.4 10.5944C3.4 10.8584 3.3088 11.1144 3.1408 11.324L1 14H3.4M1 2.7496L2.6 2V6.5" stroke="currentColor" stroke-width="1.2" stroke-linecap="round" stroke-linejoin="round"/>
  </symbol>
  <symbol fill="none" xmlns="http://www.w3.org/2000/svg" viewBox="0 0 16 16" id="document">
    <path d="M5.66589 8.33294H10.3326V7.26628H5.66589V8.33294ZM5.66589 10.3329H10.3326V9.26628H5.66589V10.3329ZM5.66589 12.3329H8.56589V11.2663H5.66589V12.3329ZM4.39455 14.3996C4.06433 14.3996 3.78255 14.2821 3.54922 14.0471C3.31589 13.8121 3.19922 13.5296 3.19922 13.1996V2.79961C3.19922 2.46961 3.31672 2.18711 3.55172 1.95211C3.78672 1.71711 4.06922 1.59961 4.39922 1.59961H9.59922L12.7992 4.79961V13.1996C12.7992 13.5296 12.6817 13.8121 12.4466 14.0471C12.2114 14.2821 11.9288 14.3996 11.5986 14.3996H4.39455ZM8.79922 5.59961V2.79961H4.39922V13.1996H11.5992V5.59961H8.79922Z" fill="currentColor"/>
  </symbol>
  <symbol fill="none" xmlns="http://www.w3.org/2000/svg" viewBox="0 0 16 16" id="download">
    <path xmlns="http://www.w3.org/2000/svg" d="M7.99922 10.4004L4.79922 7.20039L5.64922 6.35039L7.39922 8.10039V2.40039H8.59922V8.10039L10.3492 6.35039L11.1992 7.20039L7.99922 10.4004ZM4.39455 12.8004C4.06433 12.8004 3.78255 12.6829 3.54922 12.4479C3.31589 12.2129 3.19922 11.9304 3.19922 11.6004V10.4004H4.39922V11.6004H11.5992V10.4004H12.7992V11.6004C12.7992 11.9304 12.6817 12.2129 12.4466 12.4479C12.2114 12.6829 11.9288 12.8004 11.5986 12.8004H4.39455Z" fill="currentColor"/>
  </symbol>
  <symbol fill="none" xmlns="http://www.w3.org/2000/svg" viewBox="0 0 16 16" id="whatsapp">
    <path d="M12.7005 3.27402C12.0892 2.65676 11.3612 2.16733 10.5589 1.83426C9.75652 1.50119 8.89591 1.33114 8.02719 1.33402C4.38719 1.33402 1.42052 4.30069 1.42052 7.94069C1.42052 9.10735 1.72719 10.2407 2.30052 11.2407L1.36719 14.6674L4.86719 13.7474C5.83385 14.274 6.92052 14.554 8.02719 14.554C11.6672 14.554 14.6339 11.5874 14.6339 7.94735C14.6339 6.18069 13.9472 4.52069 12.7005 3.27402ZM8.02719 13.434C7.04052 13.434 6.07385 13.1674 5.22719 12.6674L5.02719 12.5474L2.94719 13.094L3.50052 11.0674L3.36719 10.8607C2.81889 9.98539 2.5278 8.97354 2.52719 7.94069C2.52719 4.91402 4.99385 2.44735 8.02052 2.44735C9.48719 2.44735 10.8672 3.02069 11.9005 4.06069C12.4123 4.56993 12.8178 5.17572 13.0936 5.84291C13.3694 6.5101 13.51 7.22541 13.5072 7.94735C13.5205 10.974 11.0539 13.434 8.02719 13.434ZM11.0405 9.32735C10.8739 9.24735 10.0605 8.84735 9.91385 8.78735C9.76052 8.73402 9.65385 8.70735 9.54052 8.86735C9.42719 9.03402 9.11385 9.40735 9.02052 9.51402C8.92719 9.62735 8.82719 9.64069 8.66052 9.55402C8.49385 9.47402 7.96052 9.29402 7.33385 8.73402C6.84052 8.29402 6.51385 7.75402 6.41385 7.58735C6.32052 7.42069 6.40052 7.33402 6.48719 7.24735C6.56052 7.17402 6.65385 7.05402 6.73385 6.96069C6.81385 6.86735 6.84719 6.79402 6.90052 6.68735C6.95385 6.57402 6.92719 6.48069 6.88719 6.40069C6.84719 6.32069 6.51385 5.50735 6.38052 5.17402C6.24719 4.85402 6.10719 4.89402 6.00719 4.88735H5.68719C5.57385 4.88735 5.40052 4.92735 5.24719 5.09402C5.10052 5.26069 4.67385 5.66069 4.67385 6.47402C4.67385 7.28735 5.26719 8.07402 5.34719 8.18069C5.42719 8.29402 6.51385 9.96069 8.16719 10.674C8.56052 10.8474 8.86719 10.9474 9.10719 11.0207C9.50052 11.1474 9.86052 11.1274 10.1472 11.0874C10.4672 11.0407 11.1272 10.6874 11.2605 10.3007C11.4005 9.91402 11.4005 9.58735 11.3539 9.51402C11.3072 9.44069 11.2072 9.40735 11.0405 9.32735Z" fill="currentColor"/>
  </symbol>
  <symbol fill="none" xmlns="http://www.w3.org/2000/svg" viewBox="0 0 16 16" id="viber">
    <path d="M5.3099 4.13532C5.18599 4.11717 5.05962 4.14212 4.9519 4.20598H4.94257C4.69257 4.35265 4.46723 4.53732 4.27523 4.75465C4.11523 4.93932 4.02857 5.12598 4.0059 5.30598C3.99257 5.41265 4.0019 5.52065 4.03323 5.62265L4.04523 5.62932C4.22523 6.15798 4.4599 6.66665 4.74657 7.14532C5.11636 7.81754 5.57122 8.43932 6.0999 8.99532L6.1159 9.01798L6.14123 9.03665L6.15657 9.05465L6.17523 9.07065C6.73322 9.60087 7.35645 10.0579 8.0299 10.4307C8.7999 10.85 9.26723 11.048 9.5479 11.1307V11.1347C9.6299 11.16 9.70457 11.1713 9.7799 11.1713C10.0191 11.1542 10.2455 11.0569 10.4226 10.8953C10.6392 10.7033 10.8226 10.4773 10.9652 10.226V10.2213C11.0992 9.96798 11.0539 9.72932 10.8606 9.56732C10.4726 9.2276 10.0526 8.9262 9.60657 8.66732C9.3079 8.50532 9.00457 8.60332 8.8819 8.76732L8.6199 9.09798C8.48523 9.26198 8.24123 9.23932 8.24123 9.23932L8.23457 9.24332C6.4139 8.77865 5.9279 6.93532 5.9279 6.93532C5.9279 6.93532 5.90523 6.68465 6.0739 6.55665L6.4019 6.29265C6.55923 6.16465 6.66857 5.86198 6.4999 5.56332C6.24162 5.1176 5.94089 4.69788 5.6019 4.30998C5.52775 4.2189 5.4239 4.15683 5.30857 4.13465M8.38657 3.33398C8.29816 3.33398 8.21338 3.3691 8.15086 3.43162C8.08835 3.49413 8.05323 3.57891 8.05323 3.66732C8.05323 3.75572 8.08835 3.84051 8.15086 3.90302C8.21338 3.96553 8.29816 4.00065 8.38657 4.00065C9.22923 4.00065 9.92923 4.27598 10.4832 4.80398C10.7679 5.09265 10.9899 5.43465 11.1352 5.80932C11.2812 6.18465 11.3479 6.58532 11.3306 6.98665C11.3269 7.07506 11.3584 7.16132 11.4183 7.22645C11.4782 7.29159 11.5615 7.33027 11.6499 7.33398C11.7383 7.3377 11.8246 7.30614 11.8897 7.24625C11.9548 7.18637 11.9935 7.10306 11.9972 7.01465C12.0171 6.52102 11.9352 6.02858 11.7566 5.56798C11.5771 5.10504 11.3038 4.68422 10.9539 4.33198L10.9472 4.32532C10.2599 3.66865 9.39057 3.33398 8.38657 3.33398Z" fill="currentColor"/>
    <path d="M8.36458 4.4284C8.27618 4.4284 8.19139 4.46352 8.12888 4.52603C8.06637 4.58854 8.03125 4.67333 8.03125 4.76173C8.03125 4.85014 8.06637 4.93492 8.12888 4.99744C8.19139 5.05995 8.27618 5.09507 8.36458 5.09507H8.37592C8.98392 5.1384 9.42658 5.34107 9.73658 5.67373C10.0546 6.0164 10.2192 6.4424 10.2066 6.96907C10.2045 7.05747 10.2377 7.14307 10.2988 7.20702C10.3599 7.27097 10.4438 7.30803 10.5323 7.31007C10.6207 7.3121 10.7062 7.27893 10.7702 7.21786C10.8341 7.15678 10.8712 7.07281 10.8733 6.9844C10.8893 6.29307 10.6666 5.6964 10.2253 5.2204V5.21907C9.77392 4.73507 9.15458 4.47907 8.40925 4.42907L8.39792 4.42773L8.36458 4.4284Z" fill="currentColor"/>
    <path d="M8.35091 5.54621C8.3063 5.54228 8.26136 5.54737 8.21876 5.56119C8.17616 5.575 8.13679 5.59726 8.10298 5.62664C8.06918 5.65601 8.04164 5.69189 8.02201 5.73214C8.00238 5.77239 7.99106 5.81619 7.98873 5.86091C7.9864 5.90563 7.99311 5.95037 8.00845 5.99244C8.02379 6.03451 8.04745 6.07306 8.07802 6.10579C8.10859 6.13852 8.14544 6.16475 8.18637 6.18292C8.2273 6.20109 8.27147 6.21082 8.31625 6.21155C8.59491 6.22621 8.77291 6.31021 8.88491 6.42288C8.99758 6.53621 9.08158 6.71821 9.09691 7.00288C9.09775 7.04761 9.10757 7.09172 9.12581 7.13257C9.14405 7.17343 9.17033 7.21019 9.20308 7.24067C9.23583 7.27116 9.27438 7.29473 9.31643 7.31C9.35849 7.32527 9.40319 7.33192 9.44787 7.32954C9.49254 7.32717 9.53629 7.31583 9.57649 7.29619C9.61669 7.27656 9.65253 7.24903 9.68186 7.21525C9.7112 7.18147 9.73343 7.14213 9.74724 7.09957C9.76105 7.05702 9.76616 7.01211 9.76225 6.96755C9.74091 6.56755 9.61558 6.21421 9.35891 5.95421C9.10091 5.69421 8.74958 5.56755 8.35091 5.54621Z" fill="currentColor"/>
    <path fill-rule="evenodd" clip-rule="evenodd" d="M4.71157 1.59002C6.83295 1.11583 9.03285 1.11583 11.1542 1.59002L11.3802 1.64002C12.0002 1.77901 12.5696 2.08698 13.0252 2.52979C13.4808 2.97259 13.8049 3.53294 13.9616 4.14869C14.5005 6.27055 14.5005 8.49349 13.9616 10.6154C13.8049 11.2311 13.4808 11.7915 13.0252 12.2343C12.5696 12.6771 12.0002 12.985 11.3802 13.124L11.1536 13.174C9.82485 13.4707 8.46155 13.5827 7.10223 13.5067L5.33357 15.0894C5.26689 15.1491 5.1854 15.1898 5.09762 15.2072C5.00984 15.2247 4.91899 15.2183 4.83453 15.1887C4.75008 15.159 4.67512 15.1073 4.61749 15.0388C4.55986 14.9703 4.52167 14.8876 4.5069 14.7994L4.21423 13.0514C3.65318 12.8764 3.14628 12.5607 2.7419 12.1343C2.33751 11.7078 2.04912 11.1849 1.90423 10.6154C1.36526 8.49349 1.36526 6.27055 1.90423 4.14869C2.06086 3.53294 2.38496 2.97259 2.84059 2.52979C3.29623 2.08698 3.8656 1.77901 4.48557 1.64002L4.71157 1.59002ZM10.9362 2.56536C8.95842 2.12323 6.90738 2.12323 4.92957 2.56536L4.7029 2.61602C4.26354 2.71481 3.86009 2.93326 3.53722 3.24719C3.21435 3.56112 2.98465 3.95828 2.87357 4.39469C2.37556 6.35511 2.37556 8.40893 2.87357 10.3694C2.98471 10.8059 3.2145 11.2031 3.5375 11.517C3.86049 11.8309 4.26408 12.0493 4.70357 12.148L4.76357 12.1614C4.86063 12.1831 4.94901 12.2332 5.01741 12.3054C5.08582 12.3776 5.13113 12.4686 5.14757 12.5667L5.34357 13.7387L6.59157 12.622C6.6414 12.5773 6.69972 12.543 6.76305 12.5213C6.82638 12.4995 6.89343 12.4907 6.96023 12.4954C8.29294 12.5895 9.63225 12.4895 10.9362 12.1987L11.1622 12.148C11.6017 12.0493 12.0053 11.8309 12.3283 11.517C12.6513 11.2031 12.8811 10.8059 12.9922 10.3694C13.4896 8.40936 13.4896 6.35536 12.9922 4.39469C12.8811 3.95819 12.6513 3.56098 12.3283 3.24704C12.0053 2.93311 11.6017 2.7147 11.1622 2.61602L10.9362 2.56536Z" fill="currentColor"/>
  </symbol>
  <symbol fill="none" xmlns="http://www.w3.org/2000/svg" viewBox="0 0 16 16" id="telegram">
    <path d="M7.9987 1.33398C4.3187 1.33398 1.33203 4.32065 1.33203 8.00065C1.33203 11.6807 4.3187 14.6673 7.9987 14.6673C11.6787 14.6673 14.6654 11.6807 14.6654 8.00065C14.6654 4.32065 11.6787 1.33398 7.9987 1.33398ZM11.092 5.86732C10.992 6.92065 10.5587 9.48065 10.3387 10.6607C10.2454 11.1607 10.0587 11.3273 9.88536 11.3473C9.4987 11.3807 9.20536 11.094 8.83203 10.8473C8.24536 10.4607 7.91203 10.2207 7.34536 9.84732C6.68536 9.41398 7.11203 9.17398 7.49203 8.78732C7.59203 8.68732 9.2987 7.13398 9.33203 6.99398C9.33666 6.97278 9.33605 6.95077 9.33024 6.92985C9.32443 6.90894 9.3136 6.88976 9.2987 6.87398C9.2587 6.84065 9.20536 6.85398 9.1587 6.86065C9.0987 6.87398 8.16536 7.49398 6.34536 8.72065C6.0787 8.90065 5.8387 8.99398 5.62536 8.98732C5.38536 8.98065 4.93203 8.85398 4.59203 8.74065C4.17203 8.60732 3.84536 8.53398 3.87203 8.30065C3.88536 8.18065 4.05203 8.06065 4.36536 7.93398C6.31203 7.08732 7.60536 6.52732 8.25203 6.26065C10.1054 5.48732 10.4854 5.35398 10.7387 5.35398C10.792 5.35398 10.9187 5.36732 10.9987 5.43398C11.0654 5.48732 11.0854 5.56065 11.092 5.61398C11.0854 5.65398 11.0987 5.77398 11.092 5.86732Z" fill="currentColor"/>
  </symbol>
  <symbol fill="none" xmlns="http://www.w3.org/2000/svg" viewBox="0 0 16 16" id="vk">
    <path d="M4.35236 2.00073C3.05901 2.00073 2.00073 3.05901 2.00073 4.35236V11.6506C2.00073 12.944 3.05901 14.0022 4.35236 14.0022H11.6506C12.944 14.0022 14.0022 12.944 14.0022 11.6506V4.35236C14.0022 3.05901 12.944 2.00073 11.6506 2.00073H4.35236ZM5.69862 4.7086H8.06599C8.55765 4.7086 8.93112 4.72659 9.18462 4.76523C9.43812 4.80194 9.67623 4.88062 9.89749 5.00036C10.1369 5.12935 10.3168 5.30305 10.4352 5.51823C10.5537 5.73469 10.6137 5.98348 10.6137 6.26636C10.6137 6.59329 10.5322 6.88389 10.3677 7.13899C10.2049 7.39408 9.97896 7.58167 9.69162 7.70299V7.73786C10.1051 7.82566 10.4367 8.00229 10.6854 8.27112C10.9345 8.54025 11.0589 8.90253 11.0589 9.35749C11.0589 9.69049 10.996 9.98421 10.8699 10.2361C10.7438 10.488 10.5749 10.6956 10.3614 10.8616C10.1095 11.0596 9.83298 11.1993 9.53 11.2839C9.22893 11.3682 8.84649 11.4102 8.381 11.4102H5.69863V4.70862L5.69862 4.7086ZM7.37299 5.9371V7.35536H7.58486C7.8722 7.35536 8.07523 7.35241 8.19049 7.34636C8.30575 7.34031 8.4257 7.30944 8.54862 7.2526C8.68207 7.18971 8.77605 7.10239 8.82649 6.9916C8.87725 6.87954 8.90336 6.75013 8.90336 6.60423C8.90336 6.49537 8.87566 6.38451 8.8201 6.27086C8.76487 6.1572 8.67906 6.07412 8.5606 6.02336C8.45013 5.9742 8.31951 5.94828 8.16723 5.94349C8.01526 5.93869 7.78945 5.93712 7.48998 5.93712L7.37299 5.9371ZM7.37299 8.50323V10.181H7.46374C7.90178 10.181 8.20432 10.1777 8.37162 10.1716C8.53891 10.1656 8.71125 10.1258 8.88462 10.0505C9.0385 9.9844 9.14899 9.88756 9.21987 9.75986C9.29043 9.63247 9.32563 9.48796 9.32563 9.32673C9.32563 9.1192 9.28461 8.95796 9.2 8.8411C9.11571 8.72298 8.98962 8.63526 8.822 8.57523C8.72047 8.53532 8.57902 8.5137 8.40087 8.50923C8.22272 8.50477 7.98328 8.50323 7.6835 8.50323H7.37299Z" fill="currentColor"/>
  </symbol>
  <symbol fill="none" xmlns="http://www.w3.org/2000/svg" viewBox="0 0 16 16" id="ok">
    <path d="M10.915 8.37C10.775 8.085 10.38 7.845 9.85503 8.25C9.14003 8.82 8.00003 8.82 8.00003 8.82C8.00003 8.82 6.86003 8.82 6.14503 8.25C5.62003 7.845 5.22503 8.085 5.08503 8.37C4.83503 8.87 5.11503 9.115 5.75003 9.52C6.29503 9.87 7.04003 10 7.52003 10.05L7.12003 10.45C6.55003 11.015 6.00003 11.56 5.62503 11.94C5.40003 12.17 5.40003 12.535 5.62503 12.75L5.69503 12.83C5.92003 13.055 6.29003 13.055 6.51503 12.83L8.00003 11.34C8.57503 11.905 9.12003 12.45 9.50003 12.83C9.72503 13.055 10.09 13.055 10.32 12.83L10.385 12.75C10.615 12.535 10.615 12.17 10.385 11.94L8.89503 10.45L8.50003 10.045C8.97503 10 9.71003 9.865 10.25 9.52C10.885 9.115 11.165 8.87 10.915 8.37ZM8.00003 4.285C8.69003 4.285 9.25003 4.845 9.25003 5.53C9.25003 6.22 8.69003 6.775 8.00003 6.775C7.31003 6.775 6.75003 6.22 6.75003 5.53C6.75003 4.845 7.31003 4.285 8.00003 4.285ZM8.00003 8.06C9.40003 8.06 10.53 6.93 10.53 5.53C10.53 4.859 10.2635 4.21549 9.78901 3.74102C9.31454 3.26655 8.67102 3 8.00003 3C7.32903 3 6.68551 3.26655 6.21105 3.74102C5.73658 4.21549 5.47003 4.859 5.47003 5.53C5.47003 6.93 6.60003 8.06 8.00003 8.06Z" fill="currentColor"/>
  </symbol>
  <symbol fill="none" xmlns="http://www.w3.org/2000/svg" viewBox="0 0 16 16" id="settings">
    <path d="M6.44735 2.75735C6.48409 2.37091 6.66358 2.01205 6.95075 1.75087C7.23793 1.4897 7.61217 1.34497 8.00035 1.34497C8.38854 1.34497 8.76277 1.4897 9.04995 1.75087C9.33713 2.01205 9.51662 2.37091 9.55335 2.75735C9.57543 3.00699 9.65733 3.24763 9.79211 3.45891C9.92689 3.67019 10.1106 3.84589 10.3277 3.97114C10.5447 4.09638 10.7888 4.16749 11.0392 4.17843C11.2895 4.18938 11.5388 4.13984 11.766 4.03402C12.1188 3.87387 12.5185 3.8507 12.8874 3.96901C13.2562 4.08732 13.5679 4.33865 13.7617 4.67409C13.9555 5.00953 14.0175 5.40507 13.9358 5.78373C13.854 6.1624 13.6343 6.4971 13.3194 6.72269C13.1143 6.86658 12.9469 7.05776 12.8313 7.28004C12.7157 7.50231 12.6554 7.74916 12.6554 7.99969C12.6554 8.25021 12.7157 8.49706 12.8313 8.71934C12.9469 8.94161 13.1143 9.13279 13.3194 9.27669C13.6343 9.50228 13.854 9.83697 13.9358 10.2156C14.0175 10.5943 13.9555 10.9898 13.7617 11.3253C13.5679 11.6607 13.2562 11.9121 12.8874 12.0304C12.5185 12.1487 12.1188 12.1255 11.766 11.9654C11.5388 11.8595 11.2895 11.81 11.0392 11.8209C10.7888 11.8319 10.5447 11.903 10.3277 12.0282C10.1106 12.1535 9.92689 12.3292 9.79211 12.5405C9.65733 12.7517 9.57543 12.9924 9.55335 13.242C9.51662 13.6285 9.33713 13.9873 9.04995 14.2485C8.76277 14.5097 8.38854 14.6544 8.00035 14.6544C7.61217 14.6544 7.23793 14.5097 6.95075 14.2485C6.66358 13.9873 6.48409 13.6285 6.44735 13.242C6.42532 12.9923 6.34342 12.7516 6.2086 12.5402C6.07378 12.3288 5.89 12.1531 5.67284 12.0278C5.45568 11.9026 5.21153 11.8315 4.96107 11.8206C4.71061 11.8097 4.46122 11.8594 4.23402 11.9654C3.88128 12.1255 3.48157 12.1487 3.11269 12.0304C2.7438 11.9121 2.43213 11.6607 2.23834 11.3253C2.04455 10.9898 1.9825 10.5943 2.06426 10.2156C2.14602 9.83697 2.36575 9.50228 2.68069 9.27669C2.88577 9.13279 3.05317 8.94161 3.16875 8.71934C3.28432 8.49706 3.34466 8.25021 3.34466 7.99969C3.34466 7.74916 3.28432 7.50231 3.16875 7.28004C3.05317 7.05776 2.88577 6.86658 2.68069 6.72269C2.3662 6.49698 2.14685 6.16242 2.06529 5.78401C1.98372 5.4056 2.04576 5.01038 2.23934 4.67516C2.43293 4.33994 2.74423 4.08867 3.11275 3.97018C3.48127 3.85169 3.88068 3.87444 4.23335 4.03402C4.46053 4.13984 4.70985 4.18938 4.96022 4.17843C5.21059 4.16749 5.45464 4.09638 5.67171 3.97114C5.88878 3.84589 6.07248 3.67019 6.20726 3.45891C6.34205 3.24763 6.42394 3.00699 6.44602 2.75735" stroke="currentColor" stroke-width="1.2" stroke-linecap="round" stroke-linejoin="round"/>
    <path d="M8 10C9.10457 10 10 9.10457 10 8C10 6.89543 9.10457 6 8 6C6.89543 6 6 6.89543 6 8C6 9.10457 6.89543 10 8 10Z" stroke="currentColor" stroke-width="1.2" stroke-linecap="round" stroke-linejoin="round"/>
  </symbol>
  <symbol fill="none" xmlns="http://www.w3.org/2000/svg" viewBox="0 0 16 16" id="list">
    <path d="M14 3.99998C14 4.17679 13.9298 4.34636 13.8047 4.47139C13.6797 4.59641 13.5101 4.66665 13.3333 4.66665H6.66667C6.48986 4.66665 6.32029 4.59641 6.19526 4.47139C6.07024 4.34636 6 4.17679 6 3.99998C6 3.82317 6.07024 3.6536 6.19526 3.52858C6.32029 3.40355 6.48986 3.33332 6.66667 3.33332H13.3333C13.5101 3.33332 13.6797 3.40355 13.8047 3.52858C13.9298 3.6536 14 3.82317 14 3.99998ZM14 7.99998C14 8.17679 13.9298 8.34636 13.8047 8.47139C13.6797 8.59641 13.5101 8.66665 13.3333 8.66665H6.66667C6.48986 8.66665 6.32029 8.59641 6.19526 8.47139C6.07024 8.34636 6 8.17679 6 7.99998C6 7.82317 6.07024 7.6536 6.19526 7.52858C6.32029 7.40355 6.48986 7.33332 6.66667 7.33332H13.3333C13.5101 7.33332 13.6797 7.40355 13.8047 7.52858C13.9298 7.6536 14 7.82317 14 7.99998ZM14 12C14 12.1768 13.9298 12.3464 13.8047 12.4714C13.6797 12.5964 13.5101 12.6666 13.3333 12.6666H6.66667C6.48986 12.6666 6.32029 12.5964 6.19526 12.4714C6.07024 12.3464 6 12.1768 6 12C6 11.8232 6.07024 11.6536 6.19526 11.5286C6.32029 11.4036 6.48986 11.3333 6.66667 11.3333H13.3333C13.5101 11.3333 13.6797 11.4036 13.8047 11.5286C13.9298 11.6536 14 11.8232 14 12ZM4.66667 3.99665V4.00998C4.66667 4.74265 4.07 5.33665 3.33333 5.33665C2.59667 5.33665 2 4.74265 2 4.00998V3.99665C2 3.26398 2.59667 2.66998 3.33333 2.66998C4.07 2.66998 4.66667 3.26398 4.66667 3.99665ZM4.66667 7.99665V8.00998C4.66667 8.74265 4.07 9.33665 3.33333 9.33665C2.59667 9.33665 2 8.74265 2 8.00998V7.99665C2 7.26398 2.59667 6.66998 3.33333 6.66998C4.07 6.66998 4.66667 7.26398 4.66667 7.99665ZM4.66667 11.9967V12.01C4.66667 12.7426 4.07 13.3366 3.33333 13.3366C2.59667 13.3366 2 12.7426 2 12.01V11.9967C2 11.264 2.59667 10.67 3.33333 10.67C4.07 10.67 4.66667 11.264 4.66667 11.9967Z" fill="currentColor"/>
  </symbol>
  <symbol fill="none" xmlns="http://www.w3.org/2000/svg" viewBox="0 0 16 16" id="logout">
    <path d="M3.33333 14C2.96667 14 2.65289 13.8696 2.392 13.6087C2.13111 13.3478 2.00044 13.0338 2 12.6667V3.33333C2 2.96667 2.13067 2.65289 2.392 2.392C2.65333 2.13111 2.96711 2.00044 3.33333 2H7.33333C7.52222 2 7.68067 2.064 7.80867 2.192C7.93667 2.32 8.00044 2.47822 8 2.66667C7.99956 2.85511 7.93556 3.01356 7.808 3.142C7.68044 3.27044 7.52222 3.33422 7.33333 3.33333H3.33333V12.6667H7.33333C7.52222 12.6667 7.68067 12.7307 7.80867 12.8587C7.93667 12.9867 8.00044 13.1449 8 13.3333C7.99956 13.5218 7.93556 13.6802 7.808 13.8087C7.68044 13.9371 7.52222 14.0009 7.33333 14H3.33333ZM11.45 8.66667H6.66667C6.47778 8.66667 6.31956 8.60267 6.192 8.47467C6.06444 8.34667 6.00044 8.18844 6 8C5.99956 7.81156 6.06356 7.65333 6.192 7.52533C6.32044 7.39733 6.47867 7.33333 6.66667 7.33333H11.45L10.2 6.08333C10.0778 5.96111 10.0167 5.81111 10.0167 5.63333C10.0167 5.45556 10.0778 5.3 10.2 5.16667C10.3222 5.03333 10.4778 4.96378 10.6667 4.958C10.8556 4.95222 11.0167 5.01622 11.15 5.15L13.5333 7.53333C13.6667 7.66667 13.7333 7.82222 13.7333 8C13.7333 8.17778 13.6667 8.33333 13.5333 8.46667L11.15 10.85C11.0167 10.9833 10.8584 11.0473 10.6753 11.042C10.4922 11.0367 10.3338 10.9671 10.2 10.8333C10.0778 10.7 10.0196 10.5418 10.0253 10.3587C10.0311 10.1756 10.0949 10.0227 10.2167 9.9L11.45 8.66667Z" fill="currentColor"/>
  </symbol>
</svg>